<svg id="Layer_1" data-name="Layer 1" xmlns="http://www.w3.org/2000/svg" xmlns:xlink="http://www.w3.org/1999/xlink" viewBox="0 0 313.19 313.19"><defs><style>.cls-1{fill:none;}.cls-2{clip-path:url(#clip-path);}.cls-3{fill:#314057;fill-rule:evenodd;}</style><clipPath id="clip-path" transform="translate(14.46 19.27)"><rect class="cls-1" width="288" height="288"/></clipPath></defs><title>pattern</title><g class="cls-2"><path class="cls-3" d="M-14.46,249.18a3.47,3.47,0,0,0,.61-.6q3.53-6.08,7-12.17a2.62,2.62,0,0,0,.15-.36L-9,232q-2.34-4.05-4.7-8.11a7.05,7.05,0,0,0-.76-.91v-.89l.89-.29c.16.27.38.61.58,1,2.23,3.87,4.49,7.73,6.68,11.62a1.93,1.93,0,0,0,2,1.18c4.43-.07,8.86,0,13.29,0h1.28v1.11H9.07c-4.51,0-9,0-13.52,0a1.71,1.71,0,0,0-1.76,1c-2.2,3.92-4.48,7.81-6.73,11.71-.2.35-.41.7-.62,1l-.9-.32ZM-5.4,236c-.29-.14-.47-.3-.64-.29s-.23.23-.35.36c.15.12.3.34.46.35S-5.64,236.24-5.4,236Z" transform="translate(14.46 19.27)"/><path class="cls-3" d="M-14.46,170.21a3.47,3.47,0,0,0,.61-.6q3.53-6.08,7-12.17a1.86,1.86,0,0,0,.15-.36L-9.06,153c-1.54-2.67-3.08-5.35-4.64-8a5.92,5.92,0,0,0-.76-.91v-.9l.89-.29.63,1.06c2.2,3.81,4.38,7.62,6.59,11.41.87,1.49.39,1.25,2.13,1.26H10.24v1.11H9.07c-4.51,0-9,0-13.52,0a1.71,1.71,0,0,0-1.76,1c-2.2,3.92-4.48,7.81-6.73,11.71-.2.36-.41.7-.62,1l-.9-.32ZM-6,157.65c.2-.22.39-.35.44-.52s-.22-.36-.32-.35a.66.66,0,0,0-.46.32C-6.38,157.21-6.16,157.4-6,157.65Z" transform="translate(14.46 19.27)"/><path class="cls-3" d="M-14.46,91.24a3.47,3.47,0,0,0,.61-.6q3.53-6.08,7-12.17a2,2,0,0,0,.15-.35c-.82-1.43-1.65-2.88-2.49-4.33-1.5-2.6-3-5.21-4.53-7.81a5.92,5.92,0,0,0-.76-.91v-.9l.88-.28c.17.27.39.61.59,1,2.21,3.83,4.41,7.68,6.64,11.5.87,1.49.39,1.25,2.13,1.26,4.39,0,8.79,0,13.18,0h1.28v1.11H9.07c-4.51,0-9,0-13.52,0a1.72,1.72,0,0,0-1.76,1c-2.22,4-4.51,7.88-6.79,11.81-.18.32-.38.64-.57,1l-.89-.32ZM-5.4,78.12c-.28-.15-.45-.31-.62-.31s-.24.22-.36.34c.14.13.28.36.43.37S-5.65,78.32-5.4,78.12Z" transform="translate(14.46 19.27)"/><path class="cls-3" d="M-14.46,130.84a6.6,6.6,0,0,0,.64-.76q3.5-6,7-12.07a2.62,2.62,0,0,0,.15-.36c-.12-.24-.24-.5-.38-.76q-3.28-5.7-6.59-11.4c-.19-.32-.25-.82-.79-.83v-.89l.85-.41c.16.25.35.52.51.8,2.31,4,4.64,8,6.92,12a1.64,1.64,0,0,0,1.67,1c4.47,0,8.94,0,13.41,0h1.36v1.05a3.49,3.49,0,0,1-.5.08H-.3c-1.49,0-3,0-4.47,0a1.31,1.31,0,0,0-1.32.77c-2.28,4-4.6,8-6.91,12-.19.32-.39.63-.59,1l-.87-.45Zm8-13.21c.22.18.37.41.52.4s.29-.22.44-.35c-.13-.14-.24-.39-.39-.41S-6.26,117.46-6.51,117.63Z" transform="translate(14.46 19.27)"/><path class="cls-3" d="M-14.46,209.8a5.76,5.76,0,0,0,.64-.75q3.5-6,7-12.08a2,2,0,0,0,.15-.35c-.12-.24-.24-.51-.38-.76q-3.28-5.7-6.59-11.4c-.19-.32-.25-.82-.79-.83v-.89l.85-.41c.16.25.35.52.51.8,2.31,4,4.64,8,6.92,12a1.65,1.65,0,0,0,1.67,1c4.47-.05,8.94,0,13.41,0h1.36v1.05a3.49,3.49,0,0,1-.5.08H-.52c-1.42,0-2.83,0-4.25,0a1.31,1.31,0,0,0-1.32.77c-2.32,4.08-4.68,8.14-7,12.2-.15.26-.31.5-.47.77l-.87-.45Zm9.05-13.21c-.26-.17-.43-.37-.57-.35s-.27.26-.4.41c.15.13.29.35.44.35S-5.64,196.78-5.41,196.59Z" transform="translate(14.46 19.27)"/><path class="cls-3" d="M-14.46,288.77a6.5,6.5,0,0,0,.64-.75q3.5-6,7-12.08a2,2,0,0,0,.15-.35c-.12-.24-.24-.51-.38-.76q-3.28-5.7-6.59-11.4c-.19-.32-.25-.82-.79-.83v-.9l.85-.4c.16.25.35.52.51.8,2.31,4,4.64,8,6.92,12a1.65,1.65,0,0,0,1.67.95C0,275,4.43,275,8.9,275h1.36v1.06a3.49,3.49,0,0,1-.5.08H-1.75c-1,0-2,0-3,0a1.28,1.28,0,0,0-1.32.77c-2.32,4.08-4.68,8.14-7,12.2-.15.26-.31.5-.47.77l-.87-.46Zm9.05-13.21c-.26-.17-.43-.37-.57-.35s-.27.26-.4.41c.15.13.29.35.44.35S-5.64,275.75-5.41,275.56Z" transform="translate(14.46 19.27)"/><path class="cls-3" d="M-14.46,51.87a6.6,6.6,0,0,0,.64-.76q3.5-6,7-12.07a2.62,2.62,0,0,0,.15-.36c-.1-.2-.2-.44-.33-.66q-3.32-5.75-6.64-11.49c-.19-.33-.25-.83-.79-.84V24.8l.85-.41c.16.25.35.52.51.8,2.31,4,4.64,8,6.92,12a1.64,1.64,0,0,0,1.67.95c4.47,0,8.94,0,13.41,0h1.36v1a2.49,2.49,0,0,1-.5.08H-.52c-1.42,0-2.83,0-4.25,0A1.31,1.31,0,0,0-6.09,40c-2.28,4-4.6,8-6.91,12-.19.32-.39.63-.59,1l-.87-.46Zm8.53-12.64c.17-.25.38-.43.35-.57A.54.54,0,0,0-6,38.31a.56.56,0,0,0-.36.41C-6.35,38.86-6.12,39-5.93,39.23Z" transform="translate(14.46 19.27)"/><path class="cls-3" d="M-14.46,12.27a3.47,3.47,0,0,0,.61-.6q3.51-6,7-12.09c.05-.1.08-.21.15-.38-.44-.77-.9-1.57-1.37-2.37Q-10.87-8-13.67-12.85c-.19-.32-.25-.82-.79-.83v-.89l.85-.41c.16.25.35.52.51.8,2.31,4,4.64,8,6.91,12a1.66,1.66,0,0,0,1.67,1c4.47,0,8.94,0,13.41,0h1.34c0,.35,0,.6.07.87A1,1,0,0,1,10-.26H1.37c-1.79,0-3.57,0-5.36,0-2,0-1.46-.26-2.41,1.37C-8.63,4.94-10.84,8.79-13,12.63c-.17.29-.35.57-.52.85l-.89-.31Zm9-13.1c-.25-.12-.41-.27-.54-.24s-.26.2-.38.32c.16.11.31.28.48.31S-5.64-.64-5.44-.83Z" transform="translate(14.46 19.27)"/><path class="cls-3" d="M75.25-19.27Q78.86-13,82.51-6.68l-1,.62q-3.81-6.62-7.63-13.21Z" transform="translate(14.46 19.27)"/><path class="cls-3" d="M212.15-19.27l7.27,12.59-1,.62-7.63-13.21Z" transform="translate(14.46 19.27)"/><path class="cls-3" d="M96.72-19.27,89.11-6.09l-1-.58,7.27-12.6Z" transform="translate(14.46 19.27)"/><path class="cls-3" d="M143.7-19.27,151-6.68l-1,.62-7.62-13.21Z" transform="translate(14.46 19.27)"/><path class="cls-3" d="M165.18-19.27,157.57-6.09l-1-.58,7.26-12.6Z" transform="translate(14.46 19.27)"/><path class="cls-3" d="M28.27-19.27,20.66-6.09l-1-.58,7.26-12.6Z" transform="translate(14.46 19.27)"/><path class="cls-3" d="M6.79-19.27,14.05-6.68l-1,.62L5.45-19.27Z" transform="translate(14.46 19.27)"/><path class="cls-3" d="M280.61-19.27q3.61,6.29,7.26,12.59l-1,.62-7.62-13.21Z" transform="translate(14.46 19.27)"/><path class="cls-3" d="M233.63-19.27,226-6.09l-1-.58,7.27-12.6Z" transform="translate(14.46 19.27)"/><path class="cls-3" d="M5.67,293.92c.86-1.52,1.7-3.05,2.56-4.56,1.59-2.77,3.19-5.53,4.83-8.36l1,.55c-.19.35-.38.7-.58,1.05q-3,5.11-5.9,10.23c-.2.35-.37.73-.56,1.09Z" transform="translate(14.46 19.27)"/><path class="cls-3" d="M26.7,293.92c-.33-.62-.65-1.25-1-1.86-2-3.48-4-6.95-6.05-10.47l1-.61c.19.32.39.63.57.95q3.18,5.49,6.35,11c.19.32.34.66.5,1Z" transform="translate(14.46 19.27)"/><path class="cls-3" d="M74.13,293.92c.83-1.49,1.65-3,2.5-4.47,1.61-2.8,3.23-5.59,4.88-8.45l1,.55c-.19.35-.37.7-.57,1.05l-6,10.33c-.18.32-.33.66-.49,1Z" transform="translate(14.46 19.27)"/><path class="cls-3" d="M95.16,293.92c-.23-.43-.43-.86-.67-1.28q-2.86-5-5.74-9.94c-.2-.35-.4-.71-.62-1.12l1-.6.57.95q3.18,5.49,6.35,11c.18.32.33.66.5,1Z" transform="translate(14.46 19.27)"/><path class="cls-3" d="M142.58,293.92c.85-1.52,1.69-3.05,2.56-4.56,1.59-2.77,3.19-5.53,4.83-8.36l1,.55c-.2.35-.38.7-.58,1.05q-3,5.11-5.9,10.23c-.21.35-.37.73-.56,1.09Z" transform="translate(14.46 19.27)"/><path class="cls-3" d="M163.61,293.92c-.33-.62-.65-1.25-1-1.86-2-3.48-4-6.95-6-10.47l1-.61c.19.32.39.63.57.95q3.18,5.49,6.35,11c.19.32.34.66.5,1Z" transform="translate(14.46 19.27)"/><path class="cls-3" d="M211,293.92c.83-1.49,1.65-3,2.5-4.47,1.61-2.8,3.23-5.59,4.88-8.45l1,.55c-.19.35-.38.7-.58,1.05l-6,10.33c-.18.32-.33.66-.49,1Z" transform="translate(14.46 19.27)"/><path class="cls-3" d="M232.06,293.92c-.22-.43-.42-.86-.66-1.28q-2.86-5-5.74-9.94c-.2-.35-.4-.71-.62-1.12l.94-.6.58.95q3.18,5.49,6.35,11c.18.32.33.66.5,1Z" transform="translate(14.46 19.27)"/><path class="cls-3" d="M279.49,293.92c.85-1.52,1.69-3.05,2.56-4.56,1.59-2.77,3.19-5.53,4.83-8.36l1,.55c-.19.35-.37.7-.57,1.05l-5.91,10.23c-.2.35-.36.73-.55,1.09Z" transform="translate(14.46 19.27)"/><path class="cls-3" d="M298.73,93.25l-5.27-9.1,1-.61c.84,1.45,1.67,2.9,2.51,4.33.58,1,1.18,1.95,1.77,2.92Z" transform="translate(14.46 19.27)"/><path class="cls-3" d="M298.73,251.19l-5.27-9.11,1-.6,2.51,4.33c.58,1,1.18,1.95,1.77,2.92Z" transform="translate(14.46 19.27)"/><path class="cls-3" d="M298.73,14.29c-1.74-3-3.49-6-5.27-9.11l1-.6c.88,1.51,1.74,3,2.62,4.52.54.91,1.11,1.81,1.66,2.72Z" transform="translate(14.46 19.27)"/><path class="cls-3" d="M298.73,172.22l-5.27-9.11c.33-.2.63-.37,1-.6.88,1.51,1.74,3,2.62,4.52.54.92,1.11,1.82,1.66,2.73Z" transform="translate(14.46 19.27)"/><path class="cls-3" d="M298.73,144.48l-3.61,6.14-.67,1.14-1-.58q2.63-4.58,5.26-9.16Z" transform="translate(14.46 19.27)"/><path class="cls-3" d="M298.73,65.51l-3.61,6.14-.67,1.14-1-.57,5.26-9.17Z" transform="translate(14.46 19.27)"/><path class="cls-3" d="M298.73,223.45l-3.61,6.14-.67,1.14-1-.58q2.63-4.58,5.26-9.16Z" transform="translate(14.46 19.27)"/><path class="cls-3" d="M298.73,211.59c-1.31-2.22-2.63-4.45-3.93-6.68-.45-.77-.88-1.54-1.32-2.31l1-.59q2.13,3.68,4.28,7.35Z" transform="translate(14.46 19.27)"/><path class="cls-3" d="M298.73,53.66c-1.31-2.23-2.63-4.46-3.93-6.69-.45-.76-.88-1.54-1.32-2.31l1-.59q2.13,3.68,4.28,7.35Z" transform="translate(14.46 19.27)"/><path class="cls-3" d="M298.73,132.63c-1.31-2.23-2.63-4.46-3.93-6.69-.45-.77-.88-1.54-1.32-2.31l1-.59q2.13,3.67,4.28,7.35Z" transform="translate(14.46 19.27)"/><path class="cls-3" d="M298.73,290.56c-1.31-2.23-2.63-4.45-3.93-6.68-.45-.77-.88-1.54-1.32-2.31l1-.59,4.28,7.35Z" transform="translate(14.46 19.27)"/><path class="cls-3" d="M298.73,183.85l-4.26,7.38-1-.61,5.27-9Z" transform="translate(14.46 19.27)"/><path class="cls-3" d="M298.73,25.92l-4.26,7.37-1-.6,5.27-9Z" transform="translate(14.46 19.27)"/><path class="cls-3" d="M298.73-13.45l-4.26,7.37-1-.61,5.27-9Z" transform="translate(14.46 19.27)"/><path class="cls-3" d="M298.73,104.89l-4.26,7.37-1-.6,5.27-9Z" transform="translate(14.46 19.27)"/><path class="cls-3" d="M298.73,262.82l-4.26,7.38-1-.61,5.27-9Z" transform="translate(14.46 19.27)"/><path class="cls-3" d="M298.73,78.71h-1.47V77.59h1.47Z" transform="translate(14.46 19.27)"/><path class="cls-3" d="M298.73,236.65h-1.47v-1.12h1.47Z" transform="translate(14.46 19.27)"/><path class="cls-3" d="M298.73,157.68h-1.47v-1.12h1.47Z" transform="translate(14.46 19.27)"/><path class="cls-3" d="M298.73,118.31l-1.46-.14v-1.08l1.46.1Z" transform="translate(14.46 19.27)"/><path class="cls-3" d="M298.73,39.34l-1.46-.14V38.12l1.46.1Z" transform="translate(14.46 19.27)"/><path class="cls-3" d="M298.73,276.25l-1.46-.14V275l1.46.1Z" transform="translate(14.46 19.27)"/><path class="cls-3" d="M298.73,197.28l-1.46-.14v-1.08l1.46.1Z" transform="translate(14.46 19.27)"/><path class="cls-3" d="M298.73-.26h-1.45v-1l1.45.1Z" transform="translate(14.46 19.27)"/><path class="cls-3" d="M82.52,32.71l-1,.58-.92-1.56c-2.12-3.68-4.27-7.35-6.35-11a1.93,1.93,0,0,0-2-1.18c-4.44.06-8.87,0-13.31,0H57.7v-1.1a2.4,2.4,0,0,1,.4-.06c4.62,0,9.24,0,13.86,0,2,0,1.44.28,2.4-1.37,2.2-3.76,4.36-7.55,6.54-11.32l.64-1.06,1,.55-8,13.8C77.21,23.5,79.84,28.08,82.52,32.71ZM73.86,18.39c-.17.26-.38.44-.35.58s.27.27.42.4c.13-.15.36-.29.37-.45S74.07,18.62,73.86,18.39Z" transform="translate(14.46 19.27)"/><path class="cls-3" d="M219.42,32.7l-.93.58c-.18-.26-.37-.52-.53-.8-2.31-4-4.63-8-6.91-12a1.65,1.65,0,0,0-1.67-1c-4.47,0-8.94,0-13.41,0H194.6V18.36h1.2c4.55,0,9.1,0,13.64,0a1.55,1.55,0,0,0,1.58-.91c2.2-3.89,4.45-7.75,6.69-11.62l.73-1.25,1,.57c-2.64,4.57-5.28,9.14-7.95,13.79Zm-8-13.79c-.25-.17-.44-.37-.58-.35a.56.56,0,0,0-.37.41.56.56,0,0,0,.42.37C211,19.35,211.14,19.11,211.37,18.91Z" transform="translate(14.46 19.27)"/><path class="cls-3" d="M160.37,236.66v-1.11h15.87l8-13.77,1,.57-7.93,13.76,7.92,13.73-1,.61c-.21-.35-.43-.7-.63-1-2.28-3.93-4.57-7.86-6.8-11.82a1.64,1.64,0,0,0-1.68-.94c-4.51,0-9,0-13.53,0Zm16.26-1.07c-.2.22-.39.35-.44.52s.21.36.3.35a.64.64,0,0,0,.47-.3C177,236,176.79,235.84,176.63,235.59Z" transform="translate(14.46 19.27)"/><path class="cls-3" d="M112.9,177.46h-1.33c-4.47,0-8.94,0-13.41,0a1.67,1.67,0,0,0-1.67,1c-2.26,4-4.57,7.95-6.86,11.92l-.54.89-1-.57c2.64-4.57,5.26-9.12,7.94-13.75l-7.94-13.78,1-.6,8,13.76H112.9Zm-16.14-1.13c-.2.23-.44.38-.44.53s.24.3.37.45c.15-.13.4-.25.42-.41S96.92,176.59,96.76,176.33Z" transform="translate(14.46 19.27)"/><path class="cls-3" d="M226,191.23l-1-.6L233,176.88c-2.66-4.6-5.28-9.14-7.94-13.76l1-.62,8,13.79h15.89v1.17H248.5c-4.36,0-8.72,0-13.08,0a2.13,2.13,0,0,0-2.19,1.24c-2.18,3.9-4.44,7.76-6.68,11.63Zm8.21-14.32c-.24-.2-.4-.42-.54-.41s-.31.23-.46.36c.14.15.26.4.41.42S233.93,177.09,234.2,176.91Z" transform="translate(14.46 19.27)"/><path class="cls-3" d="M23.46,236.66v-1.11H39.33c2.68-4.64,5.33-9.21,8-13.79l1,.58-7.94,13.77,7.92,13.74-1,.6c-.2-.33-.42-.67-.62-1-2.28-3.93-4.56-7.86-6.8-11.82a1.65,1.65,0,0,0-1.66-1c-4.51,0-9,0-13.53,0Zm16.19,0,.45-.53c-.15-.13-.29-.31-.46-.35s-.36.21-.35.31S39.48,236.38,39.65,236.63Z" transform="translate(14.46 19.27)"/><path class="cls-3" d="M20.62,191.22l-1-.58c2.63-4.56,5.27-9.13,7.93-13.76-2.64-4.59-5.28-9.16-7.94-13.76l.92-.57a1.45,1.45,0,0,1,.25.29l6.77,11.71c.2.35.44.69.61,1.06a1,1,0,0,0,1.13.69,6.77,6.77,0,0,1,.78,0H44.47v1.06a1.59,1.59,0,0,1-.39.1h-5.7c-2.87,0-5.74,0-8.6,0a1.72,1.72,0,0,0-1.77,1c-2.25,4-4.56,7.94-6.85,11.91C21,190.64,20.81,190.92,20.62,191.22Zm8.21-14.37c-.26-.17-.44-.37-.58-.35s-.27.26-.4.41c.14.13.29.37.44.37S28.59,177.05,28.83,176.85Z" transform="translate(14.46 19.27)"/><path class="cls-3" d="M5.11,176.3l8-13.76,1,.55-8,13.79,7.93,13.75-1,.6c-.2-.31-.39-.62-.58-.94-2.23-3.87-4.49-7.73-6.68-11.63a2.06,2.06,0,0,0-2.08-1.23c-4.4.07-8.8,0-13.19,0h-1.31c0-.4,0-.75,0-1.16Zm.36,1.15c.18-.26.39-.43.37-.59a.55.55,0,0,0-.42-.36c-.13,0-.36.26-.36.41S5.28,177.22,5.47,177.45Z" transform="translate(14.46 19.27)"/><path class="cls-3" d="M228.83,236.66v-1.11h1.26c4.54,0,9.09,0,13.64,0a1.45,1.45,0,0,0,1.48-.87q3.38-5.92,6.81-11.82c.2-.35.41-.7.65-1.1l1,.57-7.94,13.76c2.65,4.58,5.27,9.13,7.92,13.73l-1,.61c-.21-.35-.43-.7-.63-1-2.25-3.9-4.53-7.79-6.74-11.73a1.8,1.8,0,0,0-1.84-1c-4.48,0-8.95,0-13.42,0Zm16.77-.49c-.25-.2-.38-.39-.54-.42s-.4.19-.39.25.17.43.3.46S245.31,236.31,245.6,236.17Z" transform="translate(14.46 19.27)"/><path class="cls-3" d="M215.62,235.55v1.11h-1.26c-4.51,0-9,0-13.53,0a1.63,1.63,0,0,0-1.66,1c-2.22,3.92-4.49,7.82-6.74,11.72l-.65,1.1-1-.58,7.93-13.74-7.93-13.74,1-.61,8,13.79Zm-16.38,1.15.28-.17c.09-.17.25-.33.26-.5s-.28-.31-.36-.28-.39.23-.41.38S199.15,236.51,199.24,236.7Z" transform="translate(14.46 19.27)"/><path class="cls-3" d="M131.29,235.54h15.88v1.12h-1.25c-4.51,0-9,0-13.53,0a1.64,1.64,0,0,0-1.67,1c-2.22,3.92-4.49,7.82-6.74,11.73l-.66,1.1-1-.57,7.93-13.75-7.92-13.74,1-.62C126,226.33,128.6,230.91,131.29,235.54Zm-.29.05-.47.51c.14.13.27.32.44.36s.36-.2.36-.29S131.15,235.84,131,235.59Z" transform="translate(14.46 19.27)"/><path class="cls-3" d="M116.75,249.86l-1,.59c-.2-.34-.43-.68-.63-1-2.27-3.94-4.56-7.87-6.8-11.83a1.63,1.63,0,0,0-1.66-1c-4.51,0-9,0-13.53,0H91.91v-1.1h15.87l8-13.78,1,.57c-2.64,4.58-5.28,9.15-7.93,13.76Zm-8-13.78c-.28-.16-.44-.32-.62-.33s-.24.21-.36.32c.13.14.26.38.41.39S108.44,236.26,108.7,236.08Z" transform="translate(14.46 19.27)"/><path class="cls-3" d="M62.84,235.56H78.71v1.1H77.45c-4.51,0-9,0-13.53,0a1.65,1.65,0,0,0-1.66,1c-2.22,3.93-4.49,7.82-6.74,11.73-.21.35-.42.7-.65,1.1l-1-.59q4-6.87,7.93-13.74l-7.93-13.74,1-.61Zm.22.5c-.29-.15-.46-.31-.63-.31s-.24.22-.35.34c.14.13.27.36.42.37S62.8,236.25,63.06,236.06Z" transform="translate(14.46 19.27)"/><path class="cls-3" d="M267.17,157.14l-7.93-13.75,1-.61,8,13.77h15.89v1.14H269.88c-2.05,0-1.51-.27-2.49,1.41-2.2,3.77-4.36,7.55-6.54,11.33l-.63,1-1-.57C261.88,166.33,264.51,161.75,267.17,157.14Zm.68-.52c-.18.24-.29.4-.41.55.16.12.31.29.48.32s.34-.23.33-.33S268,156.86,267.85,156.62Z" transform="translate(14.46 19.27)"/><path class="cls-3" d="M252.67,142.81l1,.56c-2.64,4.57-5.27,9.14-7.95,13.77l7.93,13.74-1,.6c-.19-.32-.41-.65-.6-1-2.3-4-4.6-7.93-6.86-11.92a1.56,1.56,0,0,0-1.59-.9c-4.51,0-9,0-13.53,0h-1.28v-1.11H230c4.55,0,9.1,0,13.64,0a1.55,1.55,0,0,0,1.58-.91c2.24-4,4.53-7.88,6.8-11.82Zm-7.07,14.38c-.25-.2-.4-.42-.55-.41s-.28.24-.43.37c.12.12.24.34.35.34S245.32,157.34,245.6,157.19Z" transform="translate(14.46 19.27)"/><path class="cls-3" d="M191.76,171.48l-1-.59,7.93-13.75-7.93-13.74,1-.62c2.65,4.57,5.29,9.14,8,13.78h15.89v1.13h-1.23c-4.51,0-9,0-13.53,0a1.63,1.63,0,0,0-1.67,1c-2.24,3.95-4.53,7.88-6.8,11.82C192.18,170.79,192,171.13,191.76,171.48ZM200,157.09c-.29-.15-.46-.31-.63-.31s-.24.22-.36.34c.14.13.28.36.43.37S199.71,157.29,200,157.09Z" transform="translate(14.46 19.27)"/><path class="cls-3" d="M177.27,157.14l7.93,13.75-1,.59c-.21-.34-.43-.68-.63-1-2.28-3.94-4.57-7.87-6.8-11.82a1.66,1.66,0,0,0-1.67-1c-4.51,0-9,0-13.53,0h-1.24v-1.1h15.87l8-13.78,1,.57C182.56,148,179.93,152.54,177.27,157.14Zm-.69-.52c-.18.24-.36.39-.38.55s.24.34.33.32.32-.21.47-.33Z" transform="translate(14.46 19.27)"/><path class="cls-3" d="M147.18,156.57v1a2,2,0,0,1-.41.07H137c-1.56,0-3.13,0-4.69,0a1.53,1.53,0,0,0-1.59.9c-2.28,4-4.6,8-6.92,12-.16.29-.34.57-.54.89l-1-.58,7.92-13.75-7.93-13.75,1-.6,8,13.78Zm-16.27,1.08c.2-.22.39-.35.43-.52s-.21-.36-.31-.35a.66.66,0,0,0-.46.32C130.53,157.21,130.75,157.4,130.91,157.65Z" transform="translate(14.46 19.27)"/><path class="cls-3" d="M116.75,170.9l-1,.58c-1.29-2.25-2.58-4.47-3.86-6.69s-2.45-4.19-3.62-6.3a1.42,1.42,0,0,0-1.41-.82c-4.55,0-9.1,0-13.64,0H91.93v-1a2.13,2.13,0,0,1,.39-.06c4.58,0,9.17,0,13.75,0,2.13,0,1.52.31,2.57-1.47,2.18-3.73,4.32-7.49,6.49-11.23.2-.35.41-.7.63-1.07l1,.56-7.94,13.77C111.44,161.7,114.08,166.27,116.75,170.9Zm-8.09-13.62c-.16-.22-.24-.45-.35-.46a1.44,1.44,0,0,0-.55.16c.08.17.12.44.25.49S108.37,157.38,108.66,157.28Z" transform="translate(14.46 19.27)"/><path class="cls-3" d="M54.85,171.48l-1-.59,7.93-13.75L53.88,143.4l1-.62,8,13.78H78.71v1.13H77.48c-4.51,0-9,0-13.53,0a1.63,1.63,0,0,0-1.67,1c-2.24,3.95-4.53,7.88-6.8,11.82C55.28,170.79,55.06,171.13,54.85,171.48Zm7.69-14.86-.47.51c.15.13.28.32.45.36s.36-.19.35-.29S62.7,156.87,62.54,156.62Z" transform="translate(14.46 19.27)"/><path class="cls-3" d="M47.31,142.78l1,.61c-2.64,4.57-5.27,9.15-7.93,13.75l7.93,13.75-1,.59c-.21-.34-.43-.68-.63-1-2.28-3.94-4.57-7.87-6.8-11.82a1.63,1.63,0,0,0-1.67-1c-4.51,0-9,0-13.53,0H23.46v-1.1H39.33Zm-7.69,13.84c-.15.26-.31.42-.32.58s.26.32.36.29.29-.24.44-.37Z" transform="translate(14.46 19.27)"/><path class="cls-3" d="M23.45,78.72v-1a2.57,2.57,0,0,1,.4,0H35.48c.85,0,1.72-.06,2.57,0A1.76,1.76,0,0,0,40,76.56c2.18-3.9,4.45-7.76,6.68-11.63l.65-1.09,1,.57L40.36,78.17l7.93,13.74-1,.6c-.44-.75-.88-1.48-1.3-2.22-2-3.52-4.08-7-6.07-10.57a1.71,1.71,0,0,0-1.74-1c-4.48,0-9,0-13.42,0Zm16.27-1.07c-.2.22-.39.35-.44.52s.21.37.3.35a.61.61,0,0,0,.47-.3C40.09,78.11,39.88,77.91,39.72,77.65Z" transform="translate(14.46 19.27)"/><path class="cls-3" d="M194.58,256.43v-1.11a3.05,3.05,0,0,1,.41,0h13.19a5.19,5.19,0,0,0,2.29-.19c.56-.32.82-1.2,1.19-1.85l6.2-10.74c.18-.32.39-.63.59-1l1,.54-7.95,13.8,7.92,13.74-1,.62c-.31-.54-.62-1-.91-1.57-2.16-3.74-4.35-7.47-6.46-11.24a1.73,1.73,0,0,0-1.77-1c-4.43,0-8.87,0-13.3,0Zm16.8-.55c-.24-.19-.39-.42-.54-.41s-.3.23-.45.36c.13.15.25.4.4.42S211.11,256.06,211.38,255.88Z" transform="translate(14.46 19.27)"/><path class="cls-3" d="M62.84,77.62H78.71v1.1H77.47c-4.51,0-9,0-13.53,0a1.65,1.65,0,0,0-1.67,1c-2.22,3.93-4.49,7.83-6.74,11.73-.21.35-.42.7-.66,1.12l-1-.57,7.93-13.76L53.89,64.44l1-.63C57.5,68.39,60.15,73,62.84,77.62Zm-.38,1.07c.2-.23.39-.36.43-.53s-.22-.36-.31-.35a.66.66,0,0,0-.47.32C62.08,78.24,62.29,78.44,62.46,78.69Z" transform="translate(14.46 19.27)"/><path class="cls-3" d="M108.82,78.17q4,6.89,7.92,13.74l-.95.61c-.21-.34-.43-.68-.63-1-2.29-4-4.6-7.93-6.86-11.92a1.49,1.49,0,0,0-1.49-.87c-4.55,0-9.09,0-13.64,0H91.91V77.61h15.88c2.68-4.64,5.33-9.21,8-13.79l1,.59Q112.79,71.27,108.82,78.17Zm-.72.52.45-.53c-.15-.12-.29-.31-.46-.35s-.35.21-.34.31S107.93,78.44,108.1,78.69Z" transform="translate(14.46 19.27)"/><path class="cls-3" d="M130.26,78.17l-7.92-13.74,1-.61,8,13.8h15.87v1.1H145.9c-4.47,0-9,0-13.42,0a1.77,1.77,0,0,0-1.82,1.07c-2.22,3.93-4.49,7.82-6.75,11.73-.18.32-.38.64-.59,1l-1-.58Zm.12-.06c.25.2.39.38.55.42s.4-.2.39-.26-.17-.42-.3-.45S130.67,78,130.38,78.11Z" transform="translate(14.46 19.27)"/><path class="cls-3" d="M177.27,78.17l7.92,13.74-.92.58a4.41,4.41,0,0,1-.3-.39L177,80.1a6.61,6.61,0,0,1-.39-.68,1.11,1.11,0,0,0-1.23-.71c-2.54,0-5.07,0-7.6,0h-7.44v-1a4.2,4.2,0,0,1,.51,0h13.53a6.59,6.59,0,0,1,.89,0,1.28,1.28,0,0,0,1.41-.8c1.69-3,3.42-5.94,5.13-8.91l2.36-4.07,1,.56Zm-.71.52.45-.53c-.15-.12-.29-.31-.47-.35s-.35.21-.34.31S176.39,78.44,176.56,78.69Z" transform="translate(14.46 19.27)"/><path class="cls-3" d="M190.79,64.42l1-.61,8,13.77h15.88v1.14h-1.2c-4.48,0-8.95,0-13.42,0a1.86,1.86,0,0,0-1.91,1.13c-2.19,3.9-4.45,7.75-6.68,11.63l-.63,1-1-.57,7.93-13.76C196.07,73.58,193.43,69,190.79,64.42ZM200,78.12c-.29-.15-.46-.31-.63-.31s-.24.22-.36.34c.14.13.28.36.43.37S199.71,78.32,200,78.12Z" transform="translate(14.46 19.27)"/><path class="cls-3" d="M244.7,77.61l8-13.78,1,.58c-2.64,4.57-5.27,9.15-7.94,13.76l7.93,13.74-1,.61c-.21-.34-.43-.68-.63-1-2.28-3.93-4.56-7.86-6.8-11.82a1.63,1.63,0,0,0-1.66-1c-4.51,0-9,0-13.53,0h-1.26V77.61Zm.35,1.08c.18-.24.4-.43.37-.55s-.28-.3-.45-.33-.34.24-.32.34S244.86,78.45,245.05,78.69Z" transform="translate(14.46 19.27)"/><path class="cls-3" d="M284.08,77.61v1.11h-1.26c-4.52,0-9,0-13.53,0a1.65,1.65,0,0,0-1.66,1c-2.22,3.93-4.49,7.82-6.75,11.73-.2.35-.41.7-.65,1.1l-1-.58,7.92-13.75-7.92-13.73,1-.62,8,13.79Zm-15.66.51c-.28-.15-.45-.31-.62-.31s-.24.22-.36.34c.14.13.27.36.42.37S268.16,78.32,268.42,78.12Z" transform="translate(14.46 19.27)"/><path class="cls-3" d="M14.05,111.66l-.94.59c-.18-.27-.36-.54-.53-.82-2.29-4-4.6-7.92-6.85-11.92a1.82,1.82,0,0,0-1.85-1c-4.43,0-8.87,0-13.3,0h-1.35V97.32H5.12l7.94-13.75,1,.55-8,13.79ZM5.48,97.36c-.2.23-.43.38-.43.53s.24.3.37.45c.15-.13.4-.25.42-.4S5.65,97.62,5.48,97.36Z" transform="translate(14.46 19.27)"/><path class="cls-3" d="M287.87,269.6l-1,.59c-.19-.31-.39-.62-.57-.94-2.28-3.93-4.57-7.86-6.81-11.82a1.71,1.71,0,0,0-1.74-1c-4.43,0-8.87,0-13.3,0h-1.4v-1.16h15.84c2.64-4.58,5.29-9.15,7.95-13.77l1,.56c-2.65,4.61-5.29,9.18-7.95,13.79Zm-8-13.72c-.23-.19-.39-.42-.54-.41s-.3.23-.45.36c.13.15.25.4.4.42S279.57,256.06,279.83,255.88Z" transform="translate(14.46 19.27)"/><path class="cls-3" d="M6.12,19c2.68,4.63,5.3,9.18,7.93,13.75l-.93.58c-.18-.27-.37-.53-.53-.81-2.31-4-4.63-8-6.91-12A1.65,1.65,0,0,0,4,19.51c-4.47,0-8.94,0-13.42,0h-1.36V18.36h1.22c4.55,0,9.1,0,13.64,0a1.55,1.55,0,0,0,1.57-.92c2.21-3.89,4.46-7.75,6.69-11.62.24-.42.49-.83.73-1.24l1,.58Zm-.64-.56c-.2.23-.44.39-.43.53s.24.3.37.45c.15-.13.4-.25.42-.4S5.65,18.65,5.48,18.39Z" transform="translate(14.46 19.27)"/><path class="cls-3" d="M27.59,19c-2.66-4.63-5.28-9.17-7.94-13.77l1-.6.69,1.16c2.25,3.91,4.52,7.8,6.74,11.73a1.56,1.56,0,0,0,1.58.9c4.5,0,9,0,13.52,0h1.3v1.16H43.11c-4.47,0-9,0-13.42,0a1.63,1.63,0,0,0-1.66,1c-2.26,4-4.57,7.94-6.86,11.91-.16.29-.34.57-.54.89l-1-.58Zm1.24-.05c-.26-.16-.44-.36-.59-.34s-.27.27-.4.42c.15.13.3.36.45.36S28.59,19.11,28.83,18.9Z" transform="translate(14.46 19.27)"/><path class="cls-3" d="M88.09,5.15l1-.56,3.31,5.73c1.3,2.25,2.59,4.53,3.91,6.77.89,1.49.38,1.26,2.24,1.26,4.36,0,8.72,0,13.08,0h1.28v1.05a1.41,1.41,0,0,1-.38.1h-5.48c-2.9,0-5.81,0-8.72,0a1.88,1.88,0,0,0-1.93,1.09c-2.2,3.94-4.49,7.82-6.74,11.73l-.59,1-1-.59c2.64-4.56,5.27-9.13,7.94-13.75C93.4,14.36,90.76,9.79,88.09,5.15Zm9.19,13.76c-.25-.17-.44-.37-.58-.35s-.27.27-.4.42c.15.13.3.36.45.36S97.05,19.11,97.28,18.91Z" transform="translate(14.46 19.27)"/><path class="cls-3" d="M150,33.3l-1-1.77c-2.08-3.61-4.19-7.21-6.23-10.85a2,2,0,0,0-2-1.18c-4.39.06-8.79,0-13.19,0h-1.38v-1.1a2.57,2.57,0,0,1,.4-.06c4.62,0,9.24,0,13.86,0,2,0,1.44.28,2.41-1.37,2.19-3.76,4.36-7.55,6.54-11.32.2-.35.42-.7.63-1.06l1,.55c-2.64,4.57-5.27,9.14-8,13.79L151,32.69Zm-7.06-14.39c-.26-.16-.43-.37-.58-.35s-.39.28-.37.41a.53.53,0,0,0,.41.37C142.53,19.35,142.69,19.12,142.92,18.91Z" transform="translate(14.46 19.27)"/><path class="cls-3" d="M164.5,19,156.56,5.18l.92-.57a3.74,3.74,0,0,1,.25.29l6.77,11.71c.22.39.46.77.66,1.17a.9.9,0,0,0,1,.58,6.77,6.77,0,0,1,.78,0h14.47v1.05a1.59,1.59,0,0,1-.39.1h-5.92c-2.8,0-5.59,0-8.39,0a1.72,1.72,0,0,0-1.76,1c-2.25,4-4.56,8-6.86,11.92-.16.28-.34.56-.53.86l-1-.58Zm1.24,0c-.26-.17-.44-.37-.59-.35s-.27.27-.4.42c.15.13.3.36.45.36S165.5,19.11,165.74,18.91Z" transform="translate(14.46 19.27)"/><path class="cls-3" d="M226,33.28l-1-.57c2.63-4.56,5.26-9.13,7.94-13.76q-4-6.87-8-13.77l1-.6,3.31,5.72c1.4,2.42,2.82,4.83,4.18,7.27a1.4,1.4,0,0,0,1.41.8c4.55,0,9.09,0,13.64,0h1.28v1c-.06,0-.15.1-.24.1-.42,0-.82,0-1.23,0-4.4,0-8.8,0-13.2,0a1.81,1.81,0,0,0-1.82,1.08c-2.22,3.93-4.49,7.82-6.74,11.73Zm7.67-13.77c.17-.26.38-.43.37-.58a.55.55,0,0,0-.42-.36c-.14,0-.37.26-.37.4S233.46,19.28,233.66,19.51Z" transform="translate(14.46 19.27)"/><path class="cls-3" d="M287.87,32.7l-.94.58c-.17-.27-.36-.53-.52-.81-2.31-4-4.64-8-6.91-12a1.67,1.67,0,0,0-1.68-.95c-4.47,0-8.94,0-13.41,0h-1.36V18.36h1.22c4.51,0,9,0,13.53,0a1.71,1.71,0,0,0,1.74-1c2.18-3.86,4.42-7.68,6.63-11.52.24-.42.49-.83.73-1.24.34.19.61.36,1,.58L279.94,19Zm-8-13.72c-.23-.2-.39-.43-.54-.42s-.3.23-.45.36c.13.15.25.4.4.42S279.57,19.15,279.83,19Z" transform="translate(14.46 19.27)"/><path class="cls-3" d="M44.5,97.3v1.19H43.18c-4.47,0-9,0-13.42,0a1.71,1.71,0,0,0-1.75,1c-2.24,4-4.53,7.88-6.8,11.82-.19.32-.39.63-.59,1l-1-.59c2.64-4.57,5.27-9.14,7.93-13.76L19.65,84.14l1-.6,8,13.76Zm-15.67.57c-.26-.16-.44-.36-.59-.34s-.26.27-.4.41c.15.14.3.37.45.37S28.59,98.08,28.83,97.87Z" transform="translate(14.46 19.27)"/><path class="cls-3" d="M225,242.08l1-.6,8,13.78h15.89v1.17H248.5c-4.48,0-8.95,0-13.42,0a1.64,1.64,0,0,0-1.67.95c-2.26,4-4.57,7.95-6.86,11.91-.17.29-.35.57-.55.92l-1-.59L233,255.85Zm9.19,13.8c-.24-.19-.4-.42-.54-.41s-.3.23-.46.36c.14.15.26.4.41.42S233.93,256.06,234.2,255.88Z" transform="translate(14.46 19.27)"/><path class="cls-3" d="M74.58,97.91l7.93,13.75-1,.6c-.19-.32-.39-.62-.57-.94-2.28-3.94-4.57-7.86-6.81-11.82a1.71,1.71,0,0,0-1.74-1c-4.43,0-8.87,0-13.3,0H57.72V97.33H73.56l8-13.76,1,.55C79.88,88.73,77.24,93.3,74.58,97.91Zm-.11,0c-.23-.19-.38-.42-.54-.42s-.3.23-.45.36c.13.15.25.4.4.42S74.21,98.12,74.47,98Z" transform="translate(14.46 19.27)"/><path class="cls-3" d="M126.14,98.49V97.32H142L150,83.57l1,.55c-2.65,4.6-5.28,9.17-7.95,13.79L151,111.66l-.94.59c-.18-.27-.36-.54-.53-.82-2.25-3.91-4.54-7.79-6.74-11.73a2.14,2.14,0,0,0-2.19-1.24c-4.39.07-8.79,0-13.19,0Zm16.24,0c.18-.26.39-.43.37-.58a.55.55,0,0,0-.42-.37.59.59,0,0,0-.37.41C142,98.09,142.19,98.25,142.38,98.48Z" transform="translate(14.46 19.27)"/><path class="cls-3" d="M126.14,256.43v-1.17H142L150,241.51l1,.55c-2.65,4.6-5.28,9.17-7.95,13.79L151,269.6l-1,.59c-.19-.3-.39-.61-.57-.92-2.24-3.87-4.5-7.73-6.69-11.63a2.11,2.11,0,0,0-2.19-1.24c-4.35.07-8.72,0-13.08,0Zm16.18,0c.2-.23.43-.39.43-.54a.4.4,0,0,0-.79,0C141.94,256,142.15,256.16,142.32,256.42Z" transform="translate(14.46 19.27)"/><path class="cls-3" d="M112.94,255.27v1.16h-1.36c-4.47,0-8.94,0-13.41,0a1.65,1.65,0,0,0-1.67.95c-2.26,4-4.57,7.95-6.86,11.92-.17.29-.35.57-.55.9l-1-.58c2.64-4.56,5.26-9.1,7.94-13.75q-3.94-6.82-7.94-13.77l1-.6,8,13.79Zm-15.65.55c-.26-.17-.44-.37-.59-.35s-.27.26-.4.41c.15.13.3.37.45.37S97.05,256,97.29,255.82Z" transform="translate(14.46 19.27)"/><path class="cls-3" d="M81.54,241.49l1,.58-7.94,13.78,7.93,13.75-.94.59c-.17-.27-.36-.53-.52-.81-2.31-4-4.64-8-6.92-12a1.65,1.65,0,0,0-1.66-1c-4.48,0-8.95,0-13.42,0H57.69v-1.17h1.22c4.54,0,9.09,0,13.64,0a1.54,1.54,0,0,0,1.56-.92c2.23-3.92,4.5-7.82,6.75-11.72C81.08,242.25,81.31,241.87,81.54,241.49ZM73.93,255.3c-.19.23-.43.38-.42.53s.23.3.37.45c.15-.13.39-.25.42-.41S74.11,255.55,73.93,255.3Z" transform="translate(14.46 19.27)"/><path class="cls-3" d="M164.5,97.91c-2.67-4.64-5.3-9.18-7.95-13.77l1-.59c1.12,1.93,2.22,3.83,3.31,5.73,1.35,2.33,2.73,4.63,4,7a1.85,1.85,0,0,0,1.93,1.08c4.44,0,8.87,0,13.31,0h1.28v1.06a1.51,1.51,0,0,1-.38.1h-5.37c-2.94,0-5.89,0-8.83,0a1.86,1.86,0,0,0-1.93,1.09c-2.21,3.93-4.49,7.82-6.75,11.72-.18.32-.38.64-.59,1l-1-.58Zm1.24,0c-.23-.2-.38-.42-.53-.42s-.31.23-.46.36c.13.15.25.4.4.42S165.48,98.12,165.74,98Z" transform="translate(14.46 19.27)"/><path class="cls-3" d="M5.11,255.27c2.68-4.63,5.3-9.18,8-13.77l1,.56-8,13.79c2.66,4.6,5.29,9.18,7.93,13.75-.34.22-.62.39-1,.59-.19-.31-.39-.62-.57-.94-2.27-3.93-4.56-7.86-6.8-11.81a1.72,1.72,0,0,0-1.74-1c-4.44,0-8.87,0-13.31,0h-1.4v-1.16Zm.9.61c-.23-.19-.39-.42-.53-.42s-.31.24-.46.37c.14.15.25.4.4.42S5.75,256.06,6,255.88Z" transform="translate(14.46 19.27)"/><path class="cls-3" d="M268.2,235.55h15.88v1.11h-1.26c-4.51,0-9,0-13.53,0a1.63,1.63,0,0,0-1.66,1c-2.22,3.92-4.49,7.82-6.75,11.72-.2.36-.41.71-.65,1.1l-1-.58,7.92-13.74-7.92-13.74,1-.61Zm-.38,1.07c.2-.23.39-.35.43-.52s-.21-.36-.31-.35a.65.65,0,0,0-.46.31C267.44,236.17,267.66,236.37,267.82,236.62Z" transform="translate(14.46 19.27)"/><path class="cls-3" d="M211.49,97.92l7.93,13.74-1,.6c-.19-.31-.39-.62-.57-.94-2.26-3.9-4.54-7.79-6.75-11.72a1.89,1.89,0,0,0-1.91-1.13c-4.39,0-8.79,0-13.19,0h-1.41V97.34h15.84l8-13.77,1,.55Zm-.65-.56c-.2.23-.43.39-.42.53s.23.3.37.45c.14-.13.39-.25.42-.4S211,97.62,210.84,97.36Z" transform="translate(14.46 19.27)"/><path class="cls-3" d="M279.94,97.91l7.93,13.75-1,.6c-.19-.31-.39-.62-.57-.94-2.24-3.87-4.5-7.73-6.68-11.62a2,2,0,0,0-2.08-1.23c-4.4.06-8.8,0-13.19,0h-1.31c0-.4,0-.74-.05-1.15h15.89l8-13.77,1,.55Zm-.11,0c-.24-.19-.39-.42-.54-.41s-.3.23-.45.36c.13.15.25.4.4.42S279.57,98.12,279.83,97.94Z" transform="translate(14.46 19.27)"/><path class="cls-3" d="M287.9,163.08l-8,13.8,7.92,13.74-1,.62-.92-1.56c-2.18-3.78-4.37-7.54-6.52-11.34a1.57,1.57,0,0,0-1.59-.9c-4.47,0-8.94,0-13.41,0h-1.39v-1.11a2,2,0,0,1,.37,0h12.64c.67,0,1.34,0,2,0a1.25,1.25,0,0,0,1.31-.79q3.35-5.86,6.75-11.72l.74-1.27Zm-8.07,13.84c-.23-.2-.39-.42-.53-.42s-.31.23-.46.35c.13.16.25.41.4.43S279.57,177.09,279.83,176.92Z" transform="translate(14.46 19.27)"/><path class="cls-3" d="M219.41,190.63l-.95.6c-.19-.31-.39-.62-.57-.93q-3.3-5.72-6.6-11.42c-1-1.68-.47-1.41-2.5-1.41-4.28,0-8.57,0-12.86,0H194.6v-1.17h15.88l7.94-13.75,1,.55-7.95,13.79C214.13,181.48,216.77,186.05,219.41,190.63Zm-8.57-13.18c.17-.26.39-.44.37-.59a.59.59,0,0,0-.42-.36c-.14,0-.37.26-.37.41S210.64,177.21,210.84,177.45Z" transform="translate(14.46 19.27)"/><path class="cls-3" d="M181.39,176.28v1.18h-1.32c-4.47,0-8.95,0-13.42,0a1.71,1.71,0,0,0-1.74,1c-2.26,4-4.57,7.95-6.86,11.92-.15.26-.31.51-.5.84l-1-.58c2.65-4.58,5.29-9.15,7.94-13.76l-7.94-13.77,1-.61,8,13.78Zm-15.65.63c-.24-.19-.39-.42-.54-.41s-.3.23-.45.36c.13.15.25.4.4.42S165.48,177.09,165.74,176.91Z" transform="translate(14.46 19.27)"/><path class="cls-3" d="M126.15,177.46v-1.17h1.2c4.55,0,9.09,0,13.64,0a1.56,1.56,0,0,0,1.58-.91c2.2-3.89,4.45-7.75,6.69-11.62l.72-1.25,1,.56c-2.63,4.58-5.27,9.15-7.95,13.79q3.94,6.85,7.93,13.75l-.93.59c-.17-.26-.36-.52-.52-.8-2.31-4-4.64-8-6.92-12a1.64,1.64,0,0,0-1.66-1c-4.47,0-8.94,0-13.42,0Zm16.24-1.13c-.2.23-.43.38-.43.53s.24.3.37.45c.15-.13.39-.25.42-.4S142.56,176.58,142.39,176.33Z" transform="translate(14.46 19.27)"/><path class="cls-3" d="M57.69,177.46V176.3H73.56l8-13.77,1,.56-8,13.79c2.65,4.61,5.29,9.18,7.93,13.75l-1,.6-.58-.95c-2.27-3.93-4.56-7.86-6.8-11.81a1.72,1.72,0,0,0-1.74-1c-4.43.05-8.87,0-13.3,0Zm16.24,0c.18-.26.39-.44.37-.59a.57.57,0,0,0-.42-.36c-.14,0-.37.26-.37.41S73.73,177.21,73.93,177.45Z" transform="translate(14.46 19.27)"/><path class="cls-3" d="M286.9,44.1l1,.55-7.95,13.78c2.63,4.56,5.27,9.13,7.93,13.76l-1,.61c-2.65-4.57-5.29-9.15-8-13.78H263.05V57.87h1.22c4.47,0,8.94,0,13.41,0a1.88,1.88,0,0,0,1.91-1.13c2.21-3.93,4.48-7.82,6.74-11.72C286.51,44.72,286.71,44.41,286.9,44.1Zm-7.66,13.77c-.18.26-.39.43-.37.58a.59.59,0,0,0,.42.36.55.55,0,0,0,.37-.41C279.66,58.26,279.43,58.1,279.24,57.87Z" transform="translate(14.46 19.27)"/><path class="cls-3" d="M287.89,151.18l-1,.59c-2.64-4.57-5.29-9.14-8-13.77H263.05v-1.17h1.21c4.54,0,9.09,0,13.63,0a1.57,1.57,0,0,0,1.58-.92c2.26-4,4.56-8,6.85-11.91l.58-1,1,.55c-2.64,4.56-5.27,9.13-7.95,13.78Zm-8.66-14.34c-.17.25-.38.43-.36.58a.55.55,0,0,0,.42.35c.14,0,.37-.26.37-.4S279.43,137.07,279.23,136.84Z" transform="translate(14.46 19.27)"/><path class="cls-3" d="M225,202.6l1-.58.57.92c2.29,4,4.59,7.93,6.85,11.91a1.64,1.64,0,0,0,1.66,1c4.51,0,9,0,13.52,0h1.26V217h-1.2c-4.54,0-9.09,0-13.63,0a1.55,1.55,0,0,0-1.58.9c-2.24,4-4.52,7.88-6.8,11.81-.2.36-.41.7-.63,1.08l-1-.57c2.62-4.55,5.25-9.11,8-13.78Zm8.64,14.31c.17-.25.39-.43.36-.57a.55.55,0,0,0-.41-.36.56.56,0,0,0-.38.41C233.23,216.53,233.46,216.68,233.66,216.91Z" transform="translate(14.46 19.27)"/><path class="cls-3" d="M233,97.91l-8-13.77,1-.6L234,97.3h15.89v1.19h-1.31c-4.51,0-9,0-13.53,0a1.56,1.56,0,0,0-1.58.91c-2.26,4-4.56,8-6.85,11.92l-.58,1-1-.59Zm.7.57c.17-.26.38-.44.37-.59a.57.57,0,0,0-.42-.36.55.55,0,0,0-.37.41C233.23,98.09,233.46,98.25,233.66,98.48Z" transform="translate(14.46 19.27)"/><path class="cls-3" d="M150,44.08l1,.59L143,58.43,151,72.2l-1,.6c-.2-.33-.41-.66-.61-1-2.29-4-4.59-7.93-6.85-11.91A1.55,1.55,0,0,0,141,59c-4.51,0-9,0-13.52,0h-1.29V58s.09-.1.14-.1c.41,0,.82,0,1.23,0,4.43,0,8.86,0,13.3,0a1.81,1.81,0,0,0,1.82-1.09c2.22-3.92,4.49-7.81,6.74-11.71C149.58,44.77,149.77,44.45,150,44.08ZM142.39,59c.17-.25.38-.43.36-.56a.56.56,0,0,0-.42-.37.57.57,0,0,0-.37.41C142,58.6,142.19,58.75,142.39,59Z" transform="translate(14.46 19.27)"/><path class="cls-3" d="M181.39,57.86V59h-1.2c-4.55,0-9.09,0-13.63,0a1.55,1.55,0,0,0-1.58.9c-2.24,4-4.53,7.88-6.8,11.82-.2.35-.42.7-.64,1.08l-1-.59,7.94-13.77-7.94-13.77,1-.58c.18.3.38.61.56.92,2.29,4,4.6,7.93,6.85,11.91a1.65,1.65,0,0,0,1.67,1c4.5,0,9,0,13.52,0Zm-16.78.54c.24.19.39.41.54.41s.3-.23.45-.36c-.13-.14-.25-.39-.4-.41S164.87,58.23,164.61,58.4Z" transform="translate(14.46 19.27)"/><path class="cls-3" d="M194.58,59V57.87h1.21c4.55,0,9.09,0,13.64,0A1.57,1.57,0,0,0,211,57c2.26-4,4.56-7.95,6.85-11.91.19-.32.39-.63.59-1l1,.55-7.94,13.78,7.93,13.75-1,.64-8-13.78Zm16.27-1.17c-.2.23-.43.38-.43.53a.58.58,0,0,0,.36.41.57.57,0,0,0,.43-.36C211.23,58.31,211,58.13,210.85,57.87Z" transform="translate(14.46 19.27)"/><path class="cls-3" d="M249.86,57.87v1.06a2.07,2.07,0,0,1-.41.07c-4.47,0-8.95.1-13.41,0a3,3,0,0,0-3.17,1.87c-2,3.73-4.21,7.37-6.33,11-.17.29-.35.57-.55.9l-1-.57,8-13.78L225,44.67l.95-.59c.19.3.39.6.57.91,2.27,3.93,4.57,7.85,6.79,11.81a1.88,1.88,0,0,0,1.93,1.09c4.43,0,8.87,0,13.3,0Zm-16.8.53c.24.19.39.41.54.41s.3-.23.45-.36c-.13-.14-.25-.39-.4-.41S233.33,58.23,233.06,58.4Z" transform="translate(14.46 19.27)"/><path class="cls-3" d="M225,123.63l1-.58c.19.3.38.61.56.92,2.3,4,4.6,7.93,6.86,11.91a1.63,1.63,0,0,0,1.66,1c4.51,0,9,0,13.52,0h1.26V138h-1.2c-4.54,0-9.09,0-13.63,0a1.55,1.55,0,0,0-1.58.9c-2.24,4-4.52,7.88-6.79,11.82-.21.35-.42.69-.64,1.07l-1-.56q4-6.88,8-13.79Zm8.65,14.31c.17-.25.39-.43.36-.57a.55.55,0,0,0-.41-.36.56.56,0,0,0-.38.41C233.23,137.56,233.46,137.71,233.66,137.94Z" transform="translate(14.46 19.27)"/><path class="cls-3" d="M286.9,202l1,.57-7.94,13.78,7.94,13.76-1,.61c-2.65-4.59-5.3-9.16-8-13.79H263.05V215.8h1.24c4.47,0,8.94,0,13.41,0a1.8,1.8,0,0,0,1.84-1c2.21-3.93,4.49-7.82,6.74-11.72C286.46,202.74,286.66,202.42,286.9,202Zm-7.07,14.38c-.23-.2-.39-.43-.54-.42s-.3.23-.44.36c.13.14.24.39.39.41S279.57,216.56,279.83,216.4Z" transform="translate(14.46 19.27)"/><path class="cls-3" d="M156.56,123.63l1-.58c.21.35.42.69.62,1,2.27,3.93,4.56,7.86,6.8,11.81a1.63,1.63,0,0,0,1.67.95c4.51,0,9,0,13.52,0h1.24V138H165.52c-2.68,4.62-5.32,9.2-8,13.78l-1-.57,7.95-13.79Zm8.65,13.21c-.19.23-.42.37-.43.53s.23.4.37.4a.54.54,0,0,0,.42-.35C165.59,137.28,165.38,137.1,165.21,136.84Z" transform="translate(14.46 19.27)"/><path class="cls-3" d="M126.14,138v-1.15h1.24c4.51,0,9,0,13.52,0a1.66,1.66,0,0,0,1.68-.95c2.23-4,4.52-7.88,6.79-11.81l.61-1,1,.55L143,137.4,151,151.17l-1,.6c-2.66-4.59-5.3-9.16-8-13.79Zm16.25,0c.17-.25.38-.43.36-.57a.4.4,0,0,0-.79,0C142,137.56,142.19,137.71,142.39,137.94Z" transform="translate(14.46 19.27)"/><path class="cls-3" d="M218.45,123.05l1,.58-7.94,13.77c2.64,4.59,5.28,9.16,7.94,13.77l-1,.6-3.26-5.63c-1.41-2.46-2.84-4.9-4.23-7.36a1.39,1.39,0,0,0-1.4-.82c-4.54,0-9.09,0-13.63,0h-1.29v-1.15h1.22c4.51,0,9,0,13.52,0a1.65,1.65,0,0,0,1.67-1c2.24-4,4.52-7.88,6.8-11.82C218,123.75,218.22,123.44,218.45,123.05Zm-7.6,13.79c-.2.23-.43.38-.43.52s.23.41.36.41a.54.54,0,0,0,.43-.35C211.23,137.28,211,137.1,210.85,136.84Z" transform="translate(14.46 19.27)"/><path class="cls-3" d="M97.06,138l-8,13.78-1-.57,8-13.79-7.93-13.75,1-.6c.19.32.39.63.57,1,2.29,4,4.6,7.92,6.86,11.91a1.64,1.64,0,0,0,1.67.94c4.51,0,9,0,13.52,0h1.24V138Zm.23-.61c-.27-.18-.45-.38-.59-.36s-.27.26-.4.41c.15.13.29.35.45.36S97.05,137.56,97.29,137.37Z" transform="translate(14.46 19.27)"/><path class="cls-3" d="M81.55,123l1,.6L74.58,137.4l7.94,13.77-1,.6c-.21-.34-.42-.67-.62-1-2.16-3.74-4.3-7.49-6.48-11.22C73.34,137.62,74,138,71.72,138c-4.25,0-8.5,0-12.74,0H57.7v-1.07a3.76,3.76,0,0,1,.5-.07H71.05a5.4,5.4,0,0,0,2.4-.15c.63-.36.94-1.29,1.35-2q3.08-5.31,6.14-10.64Zm-7.08,14.39c-.24-.2-.39-.42-.54-.42s-.3.23-.45.36c.13.14.25.39.4.41S74.21,137.6,74.47,137.43Z" transform="translate(14.46 19.27)"/><path class="cls-3" d="M19.64,123.62l1-.57,2,3.49c1.81,3.13,3.63,6.25,5.4,9.4a1.57,1.57,0,0,0,1.58.91c4.51,0,9,0,13.52,0h1.29c0,.37,0,.68.06,1.1H28.64c-2.68,4.62-5.32,9.19-8,13.82l-1-.57,7.94-13.78Zm8.67,13.22c-.2.23-.43.37-.44.53s.23.4.37.4a.54.54,0,0,0,.42-.35C28.68,137.28,28.47,137.1,28.31,136.84Z" transform="translate(14.46 19.27)"/><path class="cls-3" d="M6.12,137.4l7.94,13.77-1,.59c-.2-.32-.41-.65-.6-1-2.29-4-4.6-7.93-6.86-11.91a1.54,1.54,0,0,0-1.58-.9c-4.5,0-9,0-13.52,0h-1.29v-1.15H-9.5c4.51,0,9,0,13.52,0a1.64,1.64,0,0,0,1.66-1c2.24-4,4.53-7.87,6.8-11.81.18-.32.38-.63.59-1l1,.56Zm-.64-.56c-.2.23-.43.38-.42.53s.22.4.36.4a.54.54,0,0,0,.42-.35C5.87,137.27,5.65,137.1,5.48,136.84Z" transform="translate(14.46 19.27)"/><path class="cls-3" d="M218.45,202l1,.56-7.94,13.78,7.93,13.76-1,.61-8-13.79H194.59V215.8h1.24c4.47,0,8.94,0,13.41,0a1.79,1.79,0,0,0,1.84-1c2.23-4,4.53-7.88,6.8-11.81C218.06,202.65,218.26,202.34,218.45,202Zm-7.07,14.37c-.24-.2-.39-.43-.54-.43s-.3.24-.45.37c.13.14.25.39.4.41S211.11,216.56,211.38,216.4Z" transform="translate(14.46 19.27)"/><path class="cls-3" d="M151,202.6,143,216.37,151,230.14l-1,.59c-.2-.32-.41-.65-.61-1-2.29-4-4.59-7.93-6.85-11.91a1.54,1.54,0,0,0-1.58-.9c-4.5,0-9,0-13.52,0h-1.29V215.8h1.25c4.51,0,9,0,13.52,0a1.64,1.64,0,0,0,1.66-1c2.24-4,4.53-7.87,6.8-11.81.18-.32.38-.63.59-1Zm-8.65,13.21c-.17.25-.38.43-.36.58a.4.4,0,0,0,.79,0C142.75,216.19,142.52,216,142.32,215.81Z" transform="translate(14.46 19.27)"/><path class="cls-3" d="M13.08,44.1l1,.55L6.12,58.43l7.94,13.75-1,.62L5.12,59H-10.77V57.87h1.22c4.51,0,9,0,13.52,0a1.73,1.73,0,0,0,1.74-1C8,52.9,10.24,49,12.51,45,12.69,44.72,12.89,44.41,13.08,44.1ZM6,58.46c-.23-.2-.38-.42-.54-.42s-.29.23-.44.36c.13.15.25.39.39.41S5.75,58.63,6,58.46Z" transform="translate(14.46 19.27)"/><path class="cls-3" d="M20.63,72.79l-1-.58,7.94-13.78L19.65,44.66l1-.58c.19.31.38.61.56.93,2.3,4,4.6,7.92,6.86,11.91a1.65,1.65,0,0,0,1.66,1c4.51,0,9,0,13.52,0h1.26V59H43.27c-4.54,0-9.09,0-13.63,0a1.55,1.55,0,0,0-1.57.91c-2.24,4-4.53,7.88-6.8,11.81C21.07,72.06,20.85,72.41,20.63,72.79Zm7.68-14.91c-.2.22-.44.37-.44.52a.57.57,0,0,0,.37.41.57.57,0,0,0,.42-.36C28.68,58.31,28.47,58.13,28.31,57.88Z" transform="translate(14.46 19.27)"/><path class="cls-3" d="M6.12,216.37c2.67,4.61,5.3,9.19,7.94,13.76l-1,.61c-.2-.34-.42-.68-.62-1C10.23,225.81,8,221.92,5.74,218a1.79,1.79,0,0,0-1.82-1.08c-4.46.05-8.93,0-13.4,0h-1.28v-1.08a6.2,6.2,0,0,1,.62-.06c4.47,0,8.94,0,13.41,0,2.22,0,1.63.32,2.74-1.57,2.19-3.77,4.36-7.55,6.54-11.32.17-.29.35-.57.54-.88l1,.57Zm-.64-.56c-.19.23-.42.38-.42.53a.51.51,0,0,0,.36.4.54.54,0,0,0,.42-.35C5.87,216.24,5.65,216.07,5.48,215.81Z" transform="translate(14.46 19.27)"/><path class="cls-3" d="M81.54,44.1l1,.55L74.58,58.43l7.93,13.75-1,.63L73.57,59H57.69V57.87H58.9c4.51,0,9,0,13.52,0a1.72,1.72,0,0,0,1.74-1C76.4,52.9,78.69,49,81,45ZM73.94,59c.17-.25.38-.43.36-.57a.58.58,0,0,0-.43-.36.54.54,0,0,0-.36.42C73.5,58.6,73.74,58.75,73.94,59Z" transform="translate(14.46 19.27)"/><path class="cls-3" d="M88.1,84.14l1-.6L97,97.3h15.89v1.19h-1.3c-4.47,0-8.94,0-13.42,0a1.71,1.71,0,0,0-1.75,1c-2.23,4-4.53,7.89-6.8,11.82l-.58,1-1-.59,7.93-13.76Zm8.59,14.34c.2-.23.42-.38.42-.54a.58.58,0,0,0-.36-.41.59.59,0,0,0-.43.36C96.3,98,96.52,98.22,96.69,98.48Z" transform="translate(14.46 19.27)"/><path class="cls-3" d="M81.54,202l1,.58-7.94,13.77,7.94,13.77-1,.6c-2.65-4.6-5.3-9.17-8-13.8H57.69V215.8h1.25c4.51,0,9,0,13.52,0a1.65,1.65,0,0,0,1.67-1c2.23-4,4.52-7.88,6.79-11.81Zm-7.68,14.89c.21-.22.44-.37.44-.52a.55.55,0,0,0-.37-.41.56.56,0,0,0-.42.36C73.49,216.48,73.7,216.66,73.86,216.91Z" transform="translate(14.46 19.27)"/><path class="cls-3" d="M112.94,215.8v1.14H97.06c-2.67,4.64-5.32,9.21-8,13.78-.34-.18-.61-.34-1-.56,2.63-4.57,5.26-9.14,8-13.79l-7.93-13.75,1-.6c.19.31.39.63.57.94,2.29,4,4.6,7.93,6.85,11.91a1.65,1.65,0,0,0,1.68.95c4.51,0,9,0,13.52,0Zm-15.65.6c-.24-.2-.39-.43-.54-.42s-.3.23-.45.36c.13.14.25.38.4.41S97,216.57,97.29,216.4Z" transform="translate(14.46 19.27)"/><path class="cls-3" d="M156.56,242.08l1-.6c2.65,4.57,5.29,9.14,8,13.78h15.88v1.17h-1.34c-4.44,0-8.87,0-13.31,0a1.81,1.81,0,0,0-1.85,1c-2.22,4-4.52,7.88-6.8,11.82-.16.29-.34.57-.55.92l-1-.59q4-6.87,7.93-13.75Zm9.18,13.8c-.24-.19-.39-.42-.54-.41s-.3.23-.45.36c.13.15.25.4.4.42S165.48,256.06,165.74,255.88Z" transform="translate(14.46 19.27)"/><path class="cls-3" d="M44.49,255.27v1.16H43.13c-4.47,0-8.94,0-13.42,0a1.64,1.64,0,0,0-1.67.95c-2.26,4-4.57,7.95-6.86,11.92-.16.28-.34.57-.55.91l-1-.59,7.93-13.75-7.94-13.77,1-.6,8,13.79Zm-15.66.55c-.26-.17-.44-.38-.58-.35s-.27.26-.4.41c.14.13.29.37.44.37S28.59,256,28.83,255.82Z" transform="translate(14.46 19.27)"/><path class="cls-3" d="M112.94,57.87V59H97.06l-8,13.78-1-.57,8-13.79L88.12,44.68l1-.6c.19.32.39.63.57,1,2.28,3.94,4.57,7.86,6.8,11.82a1.82,1.82,0,0,0,1.85,1c4.47,0,8.94,0,13.41,0Zm-16.18,0c-.2.22-.43.37-.43.52a.56.56,0,0,0,.36.41.58.58,0,0,0,.43-.36C97.14,58.31,96.93,58.13,96.76,57.88Z" transform="translate(14.46 19.27)"/><path class="cls-3" d="M28.33,215.71c.52,0,1,.09,1.56.09H44.47v1.09a2.18,2.18,0,0,1-.38.05H31c-.78,0-1.72-.22-2.3.14s-.93,1.29-1.34,2l-6.26,10.84c-.15.26-.31.5-.49.8l-1-.58,7.94-13.77-7.93-13.76.93-.58a4.8,4.8,0,0,1,.36.52q3.56,6.13,7.09,12.29a4.49,4.49,0,0,1,.32.89c-.15.15-.35.26-.45.44a.5.5,0,0,0,.08.47.49.49,0,0,0,.47.06.48.48,0,0,0,.2-.43A2.16,2.16,0,0,0,28.33,215.71Z" transform="translate(14.46 19.27)"/><path class="cls-3" d="M165.24,215.71c.52,0,1,.09,1.56.09h14.58v1.09a2.18,2.18,0,0,1-.39.05H167.92c-.78,0-1.72-.22-2.3.14s-.93,1.29-1.34,2L158,229.92c-.15.26-.31.5-.49.8l-1-.58,7.94-13.77-7.94-13.76.94-.58a4.8,4.8,0,0,1,.36.52q3.55,6.13,7.09,12.29a5.22,5.22,0,0,1,.32.89c-.15.15-.35.26-.45.44a.52.52,0,0,0,.07.47.51.51,0,0,0,.48.06.48.48,0,0,0,.2-.43A2.16,2.16,0,0,0,165.24,215.71Z" transform="translate(14.46 19.27)"/><path class="cls-3" d="M23.47,276.17V275h1.37c4.47,0,8.94,0,13.41,0a1.63,1.63,0,0,0,1.66-1c2.25-4,4.53-7.88,6.81-11.82.18-.32.38-.63.59-1l1,.58-7.92,13.73,7.92,13.73-1,.62c-.21-.34-.43-.68-.63-1-2.16-3.74-4.31-7.49-6.48-11.23-1.07-1.83-.52-1.5-2.55-1.5-4.32,0-8.64,0-13,0Zm16.24,0c.17-.24.37-.42.35-.56a.53.53,0,0,0-.41-.36.58.58,0,0,0-.36.41C39.29,275.76,39.51,275.91,39.71,276.13Z" transform="translate(14.46 19.27)"/><path class="cls-3" d="M115.77,103.34l1,.57-7.93,13.75c2.64,4.56,5.26,9.11,7.92,13.71l-1,.65c-.3-.53-.61-1-.9-1.55-2.16-3.74-4.34-7.47-6.46-11.23a1.71,1.71,0,0,0-1.74-1c-4.51.05-9,0-13.53,0H91.91v-1a.86.86,0,0,1,.29-.11c1,0,1.93,0,2.9,0,3.73,0,7.46,0,11.18,0a2.19,2.19,0,0,0,2.28-1.28c2.15-3.88,4.4-7.69,6.62-11.53C115.36,104,115.56,103.68,115.77,103.34Zm-7.61,13.77c-.19.23-.42.37-.41.52s.22.4.36.4a.54.54,0,0,0,.41-.35C108.54,117.54,108.33,117.36,108.16,117.11Z" transform="translate(14.46 19.27)"/><path class="cls-3" d="M122.34,103.92l1-.6c.32.57.64,1.11,1,1.66,2.16,3.74,4.33,7.47,6.46,11.23a1.55,1.55,0,0,0,1.58.9c4.47,0,8.95,0,13.42,0h1.39c0,.38,0,.69.06,1.07-.22,0-.4.06-.57.06-4.7,0-9.39,0-14.09,0a1.88,1.88,0,0,0-1.92,1.1c-2.17,3.87-4.41,7.69-6.62,11.53l-.7,1.16-1-.61,7.91-13.73C127.62,113.07,125,108.53,122.34,103.92ZM131,118.2c.16-.25.37-.42.35-.57a.54.54,0,0,0-.41-.35.53.53,0,0,0-.36.4C130.55,117.82,130.78,118,131,118.2Z" transform="translate(14.46 19.27)"/><path class="cls-3" d="M177.27,117.66l7.92,13.73-.95.62c-.21-.34-.42-.68-.62-1-2.27-3.94-4.56-7.87-6.8-11.82a1.63,1.63,0,0,0-1.66-1c-4.51,0-9,0-13.53,0h-1.25V117.1h1.35c4.47,0,8.94,0,13.41,0a1.67,1.67,0,0,0,1.67-1c2.26-4,4.57-8,6.86-11.91.17-.29.35-.57.54-.9l1,.57Zm-.65-.55c-.2.22-.42.37-.42.52a.39.39,0,0,0,.77.05C177,117.54,176.79,117.36,176.62,117.11Z" transform="translate(14.46 19.27)"/><path class="cls-3" d="M252.67,103.33l1,.6-7.92,13.73,7.92,13.72-1,.63-3.37-5.83c-1.34-2.32-2.72-4.63-4-7a1.7,1.7,0,0,0-1.76-1c-4.47.05-8.95,0-13.42,0h-1.28V117.1h1.31c4.47,0,8.94,0,13.41,0a1.72,1.72,0,0,0,1.75-1c2.25-4,4.56-7.94,6.85-11.91Zm-7.08,14.3c-.25-.17-.43-.38-.57-.36s-.26.26-.39.41c.14.13.29.35.44.35S245.36,117.82,245.59,117.63Z" transform="translate(14.46 19.27)"/><path class="cls-3" d="M284.07,117.1v1.05a3.34,3.34,0,0,1-.49.08H273.52c-1.49,0-3,0-4.47,0a1.31,1.31,0,0,0-1.32.77c-2.32,4.08-4.68,8.13-7,12.2-.15.25-.31.5-.48.8l-1-.6,7.92-13.73-7.92-13.73,1-.6c.19.31.39.62.57.93,2.29,4,4.6,7.93,6.85,11.91a1.66,1.66,0,0,0,1.68,1c4.47,0,8.94,0,13.41,0Zm-16.18,0c-.19.23-.42.37-.42.52a.39.39,0,0,0,.77.05C268.26,117.54,268.06,117.36,267.89,117.11Z" transform="translate(14.46 19.27)"/><path class="cls-3" d="M260.21,289.94l-.95-.63,7.91-13.71-7.92-13.74,1-.6,1.87,3.22c1.81,3.13,3.65,6.24,5.39,9.4a2,2,0,0,0,2.11,1.18c4.36-.05,8.72,0,13.08,0h1.38v1.14h-1.22c-4.47,0-8.94,0-13.41,0a1.89,1.89,0,0,0-1.91,1.13c-2.17,3.86-4.41,7.69-6.63,11.53C260.67,289.18,260.44,289.56,260.21,289.94Zm8.2-14.38c-.26-.17-.43-.37-.57-.35s-.27.26-.4.41c.15.13.29.35.44.35S268.18,275.75,268.41,275.56Z" transform="translate(14.46 19.27)"/><path class="cls-3" d="M215.63,275v1.07a3.35,3.35,0,0,1-.53.07H201.57a5.08,5.08,0,0,1-.78,0,1.43,1.43,0,0,0-1.59.88c-1.58,2.83-3.22,5.63-4.84,8.44-.86,1.48-1.71,3-2.59,4.46l-1-.61,7.92-13.74-7.91-13.71.94-.62c.21.33.4.64.59,1,2.29,4,4.59,7.93,6.86,11.91a1.55,1.55,0,0,0,1.57.92c4.47,0,8.94,0,13.41,0Zm-16.78.53c.23.19.38.42.52.41s.3-.22.44-.35c-.12-.15-.24-.39-.39-.41S199.1,275.39,198.85,275.56Z" transform="translate(14.46 19.27)"/><path class="cls-3" d="M160.38,276.17V275h1.38c4.4,0,8.79,0,13.19,0a1.93,1.93,0,0,0,2-1.18c2.19-3.9,4.45-7.76,6.69-11.63.18-.32.38-.63.59-1l.95.55c-.18.34-.36.69-.56,1-2.23,3.88-4.43,7.77-6.73,11.6a1.93,1.93,0,0,0,0,2.31c2.27,3.85,4.49,7.73,6.72,11.6.17.29.33.58.53.94l-.93.64c-.24-.39-.47-.76-.69-1.15-2.22-3.84-4.45-7.66-6.63-11.53a1.88,1.88,0,0,0-1.9-1.13c-4.48.06-9,0-13.42,0Zm16.76-.54c-.23-.2-.38-.42-.53-.42s-.29.23-.44.35c.13.15.25.39.39.41S176.88,275.79,177.14,275.63Z" transform="translate(14.46 19.27)"/><path class="cls-3" d="M123.33,261.26l5.41,9.37c.66,1.13,1.35,2.24,1.94,3.4a1.66,1.66,0,0,0,1.74,1c4.44-.05,8.87,0,13.3,0h1.41c0,.38.05.69.08,1.07a4.07,4.07,0,0,1-.56.07h-11.4c-.86,0-1.72.06-2.57,0a2,2,0,0,0-2.11,1.17c-2.08,3.75-4.25,7.44-6.39,11.15l-.86,1.47-1-.6,7.92-13.75q-4-6.88-7.92-13.73Zm7.59,14.87c.19-.22.42-.37.41-.51a.54.54,0,0,0-.36-.41.57.57,0,0,0-.41.36C130.54,275.71,130.75,275.89,130.92,276.13Z" transform="translate(14.46 19.27)"/><path class="cls-3" d="M61.81,275.59c-2.64-4.58-5.27-9.12-7.91-13.71l1-.63,1,1.66c2.16,3.74,4.34,7.48,6.46,11.24a1.58,1.58,0,0,0,1.59.9c4.47,0,8.94,0,13.41,0h1.4c0,.39,0,.7.06,1.07a4.76,4.76,0,0,1-.58.07c-4.69,0-9.39,0-14.08,0a1.88,1.88,0,0,0-1.92,1.11c-2.12,3.77-4.3,7.5-6.46,11.24l-.85,1.45-1-.62Zm1.23,0c-.25-.17-.43-.37-.57-.35s-.26.26-.39.41c.14.12.29.34.44.35S62.81,275.75,63,275.56Z" transform="translate(14.46 19.27)"/><path class="cls-3" d="M23.47,39.27V38.13h1.38c4.4,0,8.79,0,13.19,0A2,2,0,0,0,40,37c2.21-3.92,4.49-7.81,6.75-11.72.16-.28.34-.56.53-.87l.95.54c-.18.34-.36.7-.55,1-2.25,3.9-4.48,7.82-6.78,11.7a1.75,1.75,0,0,0,0,2.1c2.27,3.85,4.48,7.73,6.72,11.61l.58,1-.92.63c-.22-.35-.44-.69-.64-1-2.22-3.84-4.46-7.67-6.63-11.54A2,2,0,0,0,38,39.23c-4.44.07-8.87,0-13.3,0Zm16.76-.55c-.23-.19-.38-.42-.53-.42s-.29.23-.44.36c.13.14.25.38.39.41S40,38.88,40.23,38.72Z" transform="translate(14.46 19.27)"/><path class="cls-3" d="M61.81,38.69,53.89,25l1-.59.58.95c2.27,3.93,4.56,7.86,6.8,11.81a1.69,1.69,0,0,0,1.74,1c4.43,0,8.86,0,13.3,0h1.4c0,.37,0,.68.08,1.06a4.07,4.07,0,0,1-.56.07H65.12a6.76,6.76,0,0,1-.9,0,1.85,1.85,0,0,0-2.1,1.16c-2.07,3.71-4.22,7.37-6.34,11L54.87,53c-.33-.19-.6-.36-1-.6Zm.65.54c.2-.23.42-.38.42-.52s-.23-.4-.36-.4a.53.53,0,0,0-.41.36C62.08,38.8,62.29,39,62.46,39.23Z" transform="translate(14.46 19.27)"/><path class="cls-3" d="M185.19,52.42l-.93.61c-.17-.27-.36-.53-.52-.81-2.31-4-4.63-8-6.91-12a1.66,1.66,0,0,0-1.66-1c-4.51,0-9,0-13.53,0h-1.26V38.13h1.34c4.43,0,8.87,0,13.3,0a1.81,1.81,0,0,0,1.85-1c2.24-4,4.56-7.94,6.85-11.91.15-.26.31-.5.5-.81l1,.57-7.92,13.74Q181.22,45.52,185.19,52.42Zm-8.05-13.76c-.25-.17-.43-.38-.58-.36s-.26.27-.39.41c.15.13.29.35.44.36S176.91,38.85,177.14,38.66Z" transform="translate(14.46 19.27)"/><path class="cls-3" d="M191.76,53.06l-1-.65,7.92-13.72L190.8,25l.95-.6c.2.31.39.62.58.94,2.25,3.9,4.54,7.78,6.73,11.72a2,2,0,0,0,2,1.13c4.4,0,8.79,0,13.19,0h1.35v1.06a3.76,3.76,0,0,1-.5.07H203.38c-.93,0-1.86,0-2.79,0a1.27,1.27,0,0,0-1.31.78c-2.18,3.82-4.39,7.62-6.59,11.42C192.4,52,192.1,52.48,191.76,53.06ZM200,38.66c-.25-.17-.43-.38-.57-.36s-.26.27-.39.41c.14.13.29.35.44.35S199.72,38.85,200,38.66Z" transform="translate(14.46 19.27)"/><path class="cls-3" d="M260.22,211l-.93-.62c.17-.32.33-.65.52-1,2.26-3.94,4.52-7.88,6.82-11.8a1.62,1.62,0,0,0,0-1.91c-2.29-3.88-4.53-7.8-6.78-11.7-.2-.35-.4-.71-.61-1.1l.9-.57a3.13,3.13,0,0,1,.31.39l6.71,11.61a5.09,5.09,0,0,1,.38.68,1.65,1.65,0,0,0,1.81,1.09c4.43-.05,8.87,0,13.3,0h1.38v1.13h-1.22c-4.47,0-8.95,0-13.42,0a1.86,1.86,0,0,0-1.9,1.13c-2.08,3.7-4.23,7.36-6.35,11Zm7.67-14.9c-.19.23-.42.37-.42.52a.39.39,0,0,0,.77.05C268.26,196.51,268.06,196.33,267.89,196.08Z" transform="translate(14.46 19.27)"/><path class="cls-3" d="M252.68,182.3l1,.6c-2.62,4.54-5.24,9.09-7.92,13.72l7.92,13.73-.92.62c-.17-.27-.36-.53-.52-.81-2.31-4-4.64-8-6.91-12a1.65,1.65,0,0,0-1.66-1c-4.51,0-9,0-13.53,0h-1.26v-1.13h1.33c4.43,0,8.87,0,13.3,0a1.82,1.82,0,0,0,1.85-1c2.25-4,4.56-8,6.85-11.92Zm-7.09,14.29c-.25-.16-.43-.37-.57-.35s-.26.26-.39.41c.14.13.29.35.44.35S245.36,196.79,245.59,196.59Z" transform="translate(14.46 19.27)"/><path class="cls-3" d="M215.62,196.07v1.06a3.92,3.92,0,0,1-.51.07c-4.39,0-8.79.1-13.18,0a3.17,3.17,0,0,0-3.36,2c-1.91,3.58-4,7-6,10.57l-.74,1.27-1-.59,7.93-13.75q-4-6.87-7.92-13.73l1-.59c.19.31.39.62.57.94,2.24,3.87,4.5,7.73,6.69,11.62a2,2,0,0,0,2.07,1.23c4.4-.06,8.79,0,13.19,0Zm-15.67.58c-.23-.19-.37-.41-.52-.41s-.3.23-.44.36c.13.14.24.38.39.4S199.7,196.82,200,196.65Z" transform="translate(14.46 19.27)"/><path class="cls-3" d="M177.27,196.62c2.66,4.63,5.27,9.14,7.91,13.72l-1,.65-.91-1.55c-2.16-3.74-4.34-7.47-6.46-11.24a1.72,1.72,0,0,0-1.74-1c-4.51,0-9,0-13.52,0h-1.24v-1c.1,0,.2-.12.29-.12l5.48,0c2.9,0,5.81,0,8.72,0a2,2,0,0,0,2.1-1.18c2.18-3.91,4.45-7.76,6.68-11.63.19-.32.39-.63.59-1l1,.57C182.56,187.44,179.93,192,177.27,196.62Zm-.13,0c-.25-.16-.43-.37-.58-.35s-.26.26-.39.41c.15.13.29.35.44.35S176.91,196.78,177.14,196.59Z" transform="translate(14.46 19.27)"/><path class="cls-3" d="M147.16,196.07v1a2.27,2.27,0,0,1-.48.09H138c-1.9,0-3.8,0-5.7,0a1.46,1.46,0,0,0-1.49.86c-2.34,4.12-4.72,8.21-7.08,12.3-.11.2-.24.38-.38.61l-1-.59,7.92-13.74q-3.94-6.85-7.92-13.73l1-.58c.17.27.36.53.52.81,2.31,4,4.63,8,6.91,12a1.66,1.66,0,0,0,1.67,1c4.47-.05,8.94,0,13.41,0Zm-15.66.52c-.25-.16-.43-.37-.57-.35s-.27.27-.4.41c.15.13.29.35.44.35S131.27,196.78,131.5,196.59Z" transform="translate(14.46 19.27)"/><path class="cls-3" d="M91.93,197.2v-1.13h1.38c4.36,0,8.72,0,13.07,0a2.13,2.13,0,0,0,2.17-1.29c2.18-3.9,4.45-7.75,6.68-11.62.17-.29.35-.57.54-.88l1,.57-7.92,13.74,7.9,13.72-.94.65c-.29-.49-.58-1-.85-1.45-2.16-3.74-4.35-7.47-6.46-11.24a1.89,1.89,0,0,0-1.91-1.13c-4.47.06-8.94,0-13.41,0Zm16.23-1.12c-.19.22-.42.37-.41.52s.22.4.36.4a.54.54,0,0,0,.41-.35C108.54,196.51,108.33,196.33,108.16,196.08Z" transform="translate(14.46 19.27)"/><path class="cls-3" d="M54.84,211l-.92-.61c.18-.32.34-.64.52-1,2.25-3.9,4.48-7.82,6.77-11.7a1.79,1.79,0,0,0,0-2.11c-2.31-3.87-4.53-7.79-6.79-11.69-.18-.32-.36-.65-.55-1l.89-.57a2.42,2.42,0,0,1,.31.39q3.36,5.81,6.71,11.61a4.79,4.79,0,0,1,.33.58,1.77,1.77,0,0,0,2,1.19c4.43-.06,8.87,0,13.3,0H78.7v1.13H77.48c-4.47,0-8.94,0-13.41,0a1.86,1.86,0,0,0-1.91,1.12c-2.19,3.9-4.45,7.76-6.69,11.63C55.27,210.28,55.05,210.62,54.84,211ZM63,196.59c-.25-.16-.43-.37-.57-.35s-.26.26-.39.41c.14.13.29.35.44.35S62.81,196.79,63,196.59Z" transform="translate(14.46 19.27)"/><path class="cls-3" d="M23.46,197.2v-1a1,1,0,0,1,.28-.12l2.79,0c3.73,0,7.46,0,11.18,0,2,0,1.48.24,2.42-1.36,2.21-3.8,4.39-7.61,6.59-11.42.19-.32.39-.63.59-1l1,.57-7.93,13.74,7.91,13.72-1,.65-.91-1.55C44.25,205.7,42.08,202,40,198.21a1.71,1.71,0,0,0-1.74-1c-4.5,0-9,0-13.52,0Zm16.77-.54c-.23-.2-.38-.42-.53-.42s-.29.23-.44.36c.13.14.25.38.39.4S40,196.82,40.23,196.66Z" transform="translate(14.46 19.27)"/><path class="cls-3" d="M47.31,103.34l1,.57-7.93,13.75c2.63,4.56,5.25,9.11,7.91,13.71l-1,.65-.85-1.45c-2.18-3.78-4.38-7.54-6.52-11.34a1.71,1.71,0,0,0-1.74-1c-4.51.05-9,0-13.52,0H23.46v-1a1.13,1.13,0,0,1,.28-.12l5.37,0c2.94,0,5.88,0,8.83,0a2,2,0,0,0,2.1-1.18c2.18-3.91,4.45-7.76,6.68-11.63C46.91,104,47.11,103.68,47.31,103.34Zm-7.08,14.35c-.23-.2-.38-.42-.52-.42s-.3.23-.45.36c.13.14.25.38.39.4S40,117.85,40.23,117.69Z" transform="translate(14.46 19.27)"/><path class="cls-3" d="M54.85,132l-1-.61q3.95-6.84,7.92-13.73L53.9,103.94l.94-.62c.21.34.41.65.59,1,2.29,4,4.6,7.93,6.86,11.91a1.56,1.56,0,0,0,1.58.91c4.51,0,9,0,13.52,0h1.29c0,.38,0,.69.07,1.06a4.41,4.41,0,0,1-.57.07c-4.69,0-9.39,0-14.08,0a1.87,1.87,0,0,0-1.93,1.1c-2.11,3.76-4.29,7.49-6.45,11.23C55.44,131,55.15,131.5,54.85,132ZM63,117.62c-.25-.16-.43-.37-.57-.35s-.26.27-.39.41c.14.13.29.35.44.35S62.81,117.82,63,117.62Z" transform="translate(14.46 19.27)"/><path class="cls-3" d="M253.64,289.32l-1,.63-.84-1.43c-2.14-3.71-4.31-7.4-6.4-11.15a2.11,2.11,0,0,0-2.19-1.23c-4.39.07-8.79,0-13.18,0h-1.24V275h1.38c4.47,0,8.94,0,13.41,0a1.65,1.65,0,0,0,1.66-1c2.26-4,4.56-7.95,6.86-11.91.16-.29.34-.57.53-.88l1,.55-7.93,13.75Zm-8.57-13.19c.17-.25.38-.42.36-.56a.55.55,0,0,0-.41-.36.54.54,0,0,0-.36.41C244.65,275.76,244.88,275.91,245.07,276.13Z" transform="translate(14.46 19.27)"/><path class="cls-3" d="M116.74,261.85l-7.92,13.74,7.91,13.73-1,.63-3.37-5.83c-1.34-2.33-2.72-4.63-4-7a1.69,1.69,0,0,0-1.76-1c-4.48,0-8.95,0-13.42,0H91.93V275h1.2c4.51,0,9,0,13.53,0a1.72,1.72,0,0,0,1.74-1c2.25-4,4.56-7.95,6.86-11.91.14-.26.3-.51.5-.84Zm-8.64,14.28c.19-.22.42-.37.42-.51a.55.55,0,0,0-.37-.41.54.54,0,0,0-.4.36C107.73,275.71,107.93,275.89,108.1,276.13Z" transform="translate(14.46 19.27)"/><path class="cls-3" d="M253.65,52.43l-.91.57a1.76,1.76,0,0,1-.26-.28c-2.33-4-4.64-8.07-7-12.1-.94-1.62-.47-1.35-2.3-1.35-4.36,0-8.72,0-13.07,0h-1.28V38.13h1.32c4.43,0,8.87,0,13.3,0A1.86,1.86,0,0,0,245.37,37c2.23-4,4.52-7.88,6.8-11.82l.5-.83,1,.58-7.93,13.74C248.35,43.23,251,47.81,253.65,52.43Zm-8.06-13.71c-.23-.2-.38-.42-.52-.42s-.3.23-.44.36c.13.14.24.39.39.41S245.34,38.88,245.59,38.72Z" transform="translate(14.46 19.27)"/><path class="cls-3" d="M284.06,38.13c0,.38,0,.67.05,1a3,3,0,0,1-.4.11h-7.38c-2.38,0-4.77,0-7.15,0a1.45,1.45,0,0,0-1.5.85c-2.33,4.11-4.72,8.2-7.08,12.3-.11.19-.23.38-.38.61l-1-.58,7.92-13.74q-3.94-6.85-7.92-13.73l.94-.59c.18.27.36.53.52.81,2.31,4,4.64,8,6.92,12a1.65,1.65,0,0,0,1.66,1c4.47,0,8.94,0,13.42,0Zm-15.65.53c-.26-.17-.43-.38-.57-.36s-.27.27-.4.41c.15.13.29.35.44.35S268.18,38.85,268.41,38.66Z" transform="translate(14.46 19.27)"/><path class="cls-3" d="M147.18,38.13V39.2c-.2,0-.37.06-.55.06-4.69,0-9.39,0-14.08,0a1.89,1.89,0,0,0-1.93,1.1c-2.11,3.77-4.29,7.5-6.45,11.24L123.31,53l-1-.62,7.91-13.73L122.35,25l1-.63,1,1.66c2.16,3.75,4.34,7.48,6.47,11.24a1.58,1.58,0,0,0,1.58.91c4.47,0,8.94,0,13.41,0Zm-15.68.59c-.23-.19-.38-.42-.52-.42s-.3.23-.45.36c.13.14.25.38.39.4S131.24,38.88,131.5,38.72Z" transform="translate(14.46 19.27)"/><path class="cls-3" d="M191.75,132l-.95-.63,7.92-13.72-7.92-13.73.94-.59c.18.27.36.54.53.82,2.31,4,4.63,8,6.91,12a1.64,1.64,0,0,0,1.67,1c4.51,0,9,0,13.53,0h1.24v1.05a3.58,3.58,0,0,1-.49.08h-9.84c-1.56,0-3.13,0-4.69,0a1.29,1.29,0,0,0-1.32.77q-3.5,6.11-7,12.2Zm7.68-13.81c.17-.25.38-.43.36-.57s-.28-.37-.41-.35a.56.56,0,0,0-.37.4C199,117.82,199.24,118,199.43,118.2Z" transform="translate(14.46 19.27)"/><path class="cls-3" d="M91.91,39.27V38.13h1.32c4.51,0,9,0,13.52,0a1.59,1.59,0,0,0,1.59-.92c2.26-4,4.56-7.94,6.85-11.91l.58-.95,1,.58-7.92,13.74,7.9,13.71-.94.64c-.25-.41-.48-.79-.7-1.17-2.26-3.91-4.52-7.8-6.74-11.73a1.57,1.57,0,0,0-1.59-.89c-4.51,0-9,0-13.53,0Zm16.25-1.13c-.19.23-.42.37-.41.52s.22.4.35.4a.54.54,0,0,0,.42-.35C108.54,38.57,108.33,38.39,108.16,38.14Z" transform="translate(14.46 19.27)"/><path class="cls-3" d="M23.47-.25v-1h1.26c4.44,0,8.87,0,13.31,0A1.93,1.93,0,0,0,40-2.4c2.19-3.89,4.45-7.75,6.69-11.62l.59-1,1,.57C45.67-9.9,43.06-5.36,40.39-.74l7.89,13.68-1,.61c-.2-.34-.42-.68-.62-1C44.43,8.59,42.14,4.66,39.91.7a1.65,1.65,0,0,0-1.66-1c-4.51,0-9,0-13.53,0ZM40.21-.59C40-.83,39.93-1,39.8-1s-.31.08-.47.14c.05.15.08.41.17.43A2.29,2.29,0,0,0,40.21-.59Z" transform="translate(14.46 19.27)"/><path class="cls-3" d="M184.22-15l1,.57C182.58-9.9,180-5.36,177.3-.74q3.93,6.81,7.89,13.68l-.95.61-.63-1c-2.27-3.93-4.56-7.86-6.8-11.82a1.63,1.63,0,0,0-1.65-1c-4.51,0-9,0-13.53,0h-1.25v-1h1.26c4.44,0,8.87,0,13.31,0a1.93,1.93,0,0,0,2-1.18c2.19-3.9,4.45-7.75,6.69-11.63ZM177.12-.85a2,2,0,0,0-.66-.2c-.1,0-.16.26-.24.4.15.08.3.23.44.21S176.9-.64,177.12-.85Z" transform="translate(14.46 19.27)"/><path class="cls-3" d="M215.61-1.24c0,.39,0,.64,0,.93a4.43,4.43,0,0,1-.57.06c-4.7,0-9.39,0-14.09,0A1.88,1.88,0,0,0,199.08.85c-2.19,3.9-4.45,7.76-6.68,11.63-.2.35-.42.7-.63,1l-1-.56L198.69-.74,190.8-14.42l1-.59c.19.32.39.63.57.94,2.28,3.94,4.57,7.87,6.8,11.82a1.73,1.73,0,0,0,1.75,1c4.43-.05,8.87,0,13.3,0Zm-15.69.48c-.22-.15-.38-.34-.48-.31s-.28.24-.42.37c.14.1.27.26.41.26S199.7-.6,199.92-.76Z" transform="translate(14.46 19.27)"/><path class="cls-3" d="M54.85,13.54l-1-.58,7.9-13.7C59.14-5.32,56.53-9.83,53.9-14.4l.94-.62c.21.34.41.65.59,1,2.3,4,4.6,7.93,6.86,11.92a1.57,1.57,0,0,0,1.59.9c4.47,0,8.94,0,13.41,0h1.38c0,.21,0,.34,0,.48s0,.28,0,.51H77.48c-4.51,0-9,0-13.53,0a1.64,1.64,0,0,0-1.67,1c-2.24,4-4.53,7.88-6.8,11.82C55.28,12.85,55.06,13.19,54.85,13.54ZM63-.75c-.22-.16-.38-.35-.48-.32s-.28.24-.42.37c.14.1.27.26.41.26S62.79-.6,63-.75Z" transform="translate(14.46 19.27)"/><path class="cls-3" d="M115.77-15l1,.61L108.85-.74q3.9,6.78,7.89,13.68l-.92.58a2,2,0,0,1-.3-.39q-3.47-6-6.93-12a5.7,5.7,0,0,1-.39-.68A1.11,1.11,0,0,0,107-.26c-2.54,0-5.07,0-7.61,0H91.93v-1h1.33c4.48,0,8.95,0,13.42,0a1.69,1.69,0,0,0,1.68-.95c2.26-4,4.56-7.95,6.85-11.92C115.38-14.38,115.56-14.66,115.77-15ZM108.65-.75c-.22-.16-.38-.35-.49-.32s-.28.24-.41.37c.13.09.27.26.41.27S108.43-.6,108.65-.75Z" transform="translate(14.46 19.27)"/><path class="cls-3" d="M122.33,13c2.66-4.6,5.28-9.15,7.9-13.7l-7.89-13.68,1-.59c.19.31.39.62.58.94,2.25,3.9,4.53,7.79,6.74,11.72a1.88,1.88,0,0,0,1.91,1.13c4.39-.05,8.79,0,13.19,0h1.4c0,.33.06.6.1.93a4.9,4.9,0,0,1-.59.06c-4.7,0-9.39,0-14.09,0A1.88,1.88,0,0,0,130.63.85c-2.19,3.9-4.45,7.75-6.68,11.63l-.64,1ZM131.47-.83c-.25-.12-.41-.27-.55-.24s-.25.2-.37.32c.16.11.31.28.48.31S131.26-.64,131.47-.83Z" transform="translate(14.46 19.27)"/><path class="cls-3" d="M252.68-15l1,.61c-2.6,4.52-5.21,9-7.89,13.67Q249.67,6,253.65,13l-1,.6-3.86-6.7c-1.21-2.1-2.45-4.18-3.63-6.3a1.37,1.37,0,0,0-1.4-.81c-4.55,0-9.09,0-13.64,0h-1.29v-1h1.21c4.48,0,8.95,0,13.42,0a1.82,1.82,0,0,0,1.85-1c2.23-4,4.53-7.89,6.8-11.82ZM245.56-.76c-.22-.15-.39-.34-.49-.31s-.28.24-.41.37c.13.1.27.26.41.27S245.34-.6,245.56-.76Z" transform="translate(14.46 19.27)"/><path class="cls-3" d="M260.22,13.53l-1-.56,7.9-13.71-7.89-13.68,1-.59.58.95c2.27,3.93,4.56,7.86,6.8,11.81a1.71,1.71,0,0,0,1.74,1c4.44-.05,8.87,0,13.31,0H284c0,.34.06.61.09.93a4.9,4.9,0,0,1-.59.06c-4.7,0-9.39,0-14.09,0A1.88,1.88,0,0,0,267.53.86c-2.18,3.89-4.44,7.75-6.68,11.62C260.65,12.84,260.43,13.18,260.22,13.53ZM268.38-.83c-.25-.12-.41-.26-.55-.24s-.25.2-.37.32c.16.11.31.28.48.31S268.17-.64,268.38-.83Z" transform="translate(14.46 19.27)"/></g></svg>